<?xml version="1.0" encoding="UTF-8"?>
<svg version="1.1" xmlns="http://www.w3.org/2000/svg" width="26" height="26">
<path d="M0 0 C1.2413269 -0.00807175 2.48265381 -0.01614349 3.76159668 -0.02445984 C6.39069238 -0.03825895 9.01980569 -0.04899966 11.64892578 -0.05688477 C14.2922647 -0.06564313 16.93432 -0.08862111 19.57763672 -0.1184082 C41.16402544 -0.361089 61.79269133 1.26758196 82.59375 7.36328125 C84.12322266 7.80486572 84.12322266 7.80486572 85.68359375 8.25537109 C120.69116638 18.70723369 155.19453546 36.3472807 182.15625 61.23828125 C183.39698546 62.35954096 184.63787964 63.48062505 185.87890625 64.6015625 C193.75351862 71.77682395 201.14196082 79.21886281 208.15625 87.23828125 C209.36474609 88.58019531 209.36474609 88.58019531 210.59765625 89.94921875 C222.41404719 103.49159938 231.87173516 119.32753085 240.15625 135.23828125 C240.80158691 136.47191406 240.80158691 136.47191406 241.45996094 137.73046875 C256.85175143 167.53089775 267.42768828 201.12852534 267.4921875 234.88671875 C267.4988443 236.14175201 267.5055011 237.39678528 267.51235962 238.68984985 C267.52241332 241.33016513 267.52717892 243.97050545 267.52685547 246.61083984 C267.52661431 250.56899739 267.56752974 254.52639967 267.60546875 258.484375 C267.69651585 278.84016608 265.7096966 298.35041613 259.90625 317.92578125 C259.6081543 318.95356689 259.31005859 319.98135254 259.00292969 321.0402832 C248.08680729 357.7985967 229.35369077 392.58281168 202.81640625 420.42578125 C200.7164347 422.64601549 198.73274976 424.89061237 196.78125 427.23828125 C160.47701429 468.9925475 100.51869072 496.34287328 46.15625 502.23828125 C37.59638248 502.80998193 29.03194878 502.81722228 20.45654297 502.75976562 C16.65918159 502.73829782 12.86371138 502.75971367 9.06640625 502.78515625 C-42.99429963 502.84502182 -97.11426391 483.98916343 -137.84375 451.23828125 C-138.79378906 450.48933594 -139.74382812 449.74039062 -140.72265625 448.96875 C-158.91342207 434.2112105 -176.72909773 416.69214618 -189.84375 397.23828125 C-190.32489258 396.53703125 -190.80603516 395.83578125 -191.30175781 395.11328125 C-219.84439186 353.13330734 -235.68029433 305.53929972 -235.42016602 254.75830078 C-235.40631034 251.00462749 -235.44053501 247.25346497 -235.47851562 243.5 C-235.54859848 221.6561727 -232.65302284 200.18583854 -226.09375 179.30078125 C-225.75577393 178.19782715 -225.41779785 177.09487305 -225.06958008 175.95849609 C-217.33229406 151.41543486 -205.38330745 128.41772404 -190.84375 107.23828125 C-190.16828125 106.24699219 -189.4928125 105.25570312 -188.796875 104.234375 C-180.24885091 92.10112592 -170.22201268 81.42719731 -159.78125 70.92578125 C-158.87165527 70.00692139 -157.96206055 69.08806152 -157.02490234 68.14135742 C-148.0569362 59.21449916 -138.53376776 51.38518735 -127.96875 44.42578125 C-127.07164307 43.83321533 -126.17453613 43.24064941 -125.25024414 42.63012695 C-93.33792256 21.78823506 -58.67763433 6.97941231 -20.84375 1.23828125 C-19.68149902 1.06087402 -18.51924805 0.8834668 -17.32177734 0.70068359 C-11.56617523 0.00114181 -5.79070035 0.03643653 0 0 Z " fill="#FECB22" transform="translate(239.84375,9.76171875)"/>
<path d="M0 0 C15.9687998 -0.35177541 31.31404949 -0.16584647 47 3 C47.71768555 3.13921875 48.43537109 3.2784375 49.17480469 3.421875 C90.29827909 11.5673775 130.08310594 33.5586779 157 66 C157.73476563 66.8353125 158.46953125 67.670625 159.2265625 68.53125 C166.66711189 77.12921818 173.0161757 86.33834261 179 96 C179.43844238 96.70382813 179.87688477 97.40765625 180.32861328 98.1328125 C193.01689427 118.98865567 200.81562572 144.87224106 204 169 C204.09732422 169.65452148 204.19464844 170.30904297 204.29492188 170.98339844 C208.90764506 205.54610796 202.98413547 241.25440512 189 273 C188.50242187 274.17175781 188.00484375 275.34351563 187.4921875 276.55078125 C177.5602806 299.50856604 162.58406627 318.44480741 145 336 C144.45859375 336.5878125 143.9171875 337.175625 143.359375 337.78125 C132.98213014 348.86374451 119.92714155 357.62607827 106.74365234 365.02099609 C105.06612818 365.96287118 103.40186977 366.92825528 101.73828125 367.89453125 C83.64831375 378.10768633 62.37437653 384.3504972 42 388 C40.96488281 388.20496094 39.92976562 388.40992188 38.86328125 388.62109375 C6.62638227 394.05007209 -28.61562355 389.60731727 -58.96875 377.78710938 C-61.0124815 376.99516342 -63.06741051 376.23947152 -65.125 375.484375 C-89.39164078 366.31767132 -110.87692027 350.363918 -129 332 C-127.39626852 327.99482604 -124.57886014 325.3228902 -121.5546875 322.359375 C-121.02481232 321.83232971 -120.49493713 321.30528442 -119.94900513 320.76226807 C-118.26232175 319.08674325 -116.56880436 317.41832278 -114.875 315.75 C-113.72740612 314.61244149 -112.58026539 313.47442564 -111.43359375 312.3359375 C-108.62761863 309.55196535 -105.81549536 306.7743424 -103 304 C-104.18029785 303.98541748 -105.3605957 303.97083496 -106.57666016 303.95581055 C-110.97149375 303.89767303 -115.36582326 303.82044119 -119.76025391 303.73754883 C-121.65925899 303.70437207 -123.55836096 303.67631769 -125.45751953 303.65356445 C-128.19345235 303.61988482 -130.92850311 303.5675628 -133.6640625 303.51171875 C-134.50804596 303.50532883 -135.35202942 303.4989389 -136.22158813 303.49235535 C-141.21778006 303.36879429 -144.61827737 302.66188101 -149 300 C-148.45838967 293.26679882 -147.09544826 287.36651894 -144.984375 280.96484375 C-144.66541763 279.97471283 -144.34646027 278.98458191 -144.01783752 277.96444702 C-142.93728431 274.61923482 -141.84381912 271.2783961 -140.75 267.9375 C-139.96457849 265.51798757 -139.17968399 263.09830401 -138.39526367 260.6784668 C-135.61469433 252.11312399 -132.80789211 243.55641656 -130 235 C-129.43726715 233.28446749 -128.87454361 231.56893192 -128.31182861 229.85339355 C-116.11307304 192.66957358 -103.89599555 155.49085032 -91.43704224 118.39324951 C-88.53376923 109.74573966 -85.68682421 101.08737523 -82.99609375 92.37109375 C-82.75897171 91.60382965 -82.52184967 90.83656555 -82.27754211 90.04605103 C-81.18786741 86.5108016 -80.109549 82.9727279 -79.05200195 79.42773438 C-78.68937256 78.23341797 -78.32674316 77.03910156 -77.953125 75.80859375 C-77.64536133 74.77532959 -77.33759766 73.74206543 -77.02050781 72.67749023 C-75.98494329 69.96049594 -75.01726026 68.09283041 -73 66 C-69.24315896 65.66456776 -66.58003773 65.80665409 -63 67 C-64.99016014 75.4181894 -67.37562595 83.63652166 -70.0546875 91.859375 C-70.4381131 93.04742737 -70.8215387 94.23547974 -71.21658325 95.45953369 C-72.43235376 99.22423144 -73.65345935 102.98717101 -74.875 106.75 C-76.08827889 110.4989009 -77.30042736 114.24816484 -78.51199341 117.99761963 C-79.26211775 120.31780402 -80.01338383 122.63761977 -80.76608276 124.95697021 C-82.68944089 130.89330986 -84.58001021 136.83871565 -86.43383789 142.79711914 C-88.78934946 150.36396544 -91.2158832 157.90652686 -93.66589546 165.44324303 C-94.40336102 167.71195036 -95.13966683 169.9810315 -95.87571716 172.25019836 C-97.70086478 177.87622438 -99.52776621 183.50168044 -101.3548584 189.1270752 C-102.90913525 193.91265599 -104.46260378 198.6984977 -106.01499748 203.48468971 C-106.73199801 205.69420609 -107.45014694 207.90334687 -108.16835022 210.11247253 C-110.54512905 217.43382989 -112.87588735 224.76675349 -115.11755371 232.13088989 C-116.35074539 236.14038345 -117.64783568 240.12839669 -118.94238281 244.1184082 C-121.94001807 253.36356837 -124.81941464 262.61178633 -127.33642578 271.99975586 C-128.74834 277.23382785 -130.4191733 282.33484006 -132.30078125 287.421875 C-133.0997285 290.36771404 -133.11994394 292.96142024 -133 296 C-129.91676961 297.78655665 -127.6599997 298.25868202 -124.11132812 298.29052734 C-123.14352417 298.30328705 -122.17572021 298.31604675 -121.17858887 298.32919312 C-120.13996704 298.33141876 -119.10134521 298.33364441 -118.03125 298.3359375 C-116.95879028 298.3425943 -115.88633057 298.3492511 -114.78137207 298.35610962 C-112.51523554 298.36622888 -110.24906926 298.37092686 -107.98291016 298.37060547 C-104.5128493 298.37498379 -101.04405503 298.41132662 -97.57421875 298.44921875 C-95.37240019 298.45508594 -93.17057558 298.45905599 -90.96875 298.4609375 C-89.93012817 298.47530853 -88.89150635 298.48967957 -87.82141113 298.50448608 C-82.2425351 298.56274865 -82.2425351 298.56274865 -77.38696289 296.14697266 C-75.67213185 293.49247095 -74.79880052 291.04251614 -73.9375 288 C-73.60878906 286.85660156 -73.28007812 285.71320313 -72.94140625 284.53515625 C-71.79377111 280.22557201 -70.71333117 275.90426511 -69.7109375 271.55859375 C-69.03845997 269.13841362 -68.29581807 267.14832996 -67 265 C-64.29340775 263.64670387 -62.15943245 263.85788561 -59.12915039 263.83886719 C-57.89769791 263.82925964 -56.66624542 263.8196521 -55.3974762 263.80975342 C-54.04753809 263.80490616 -52.69759784 263.80062715 -51.34765625 263.796875 C-49.96764625 263.79112385 -48.58763629 263.78536612 -47.20762634 263.77960205 C-44.31329984 263.76909357 -41.4190011 263.76324971 -38.5246582 263.75976562 C-34.81433119 263.75427683 -31.10437041 263.73024044 -27.39415836 263.70179367 C-24.54344099 263.68317982 -21.69281213 263.67796241 -18.84203911 263.67642975 C-17.47407463 263.67340054 -16.1061118 263.6653629 -14.73820686 263.65224457 C-12.82562629 263.63520999 -10.91289492 263.63890538 -9.00024414 263.64355469 C-7.91151505 263.63990906 -6.82278595 263.63626343 -5.70106506 263.63250732 C-3 264 -3 264 -1.17552185 265.40460205 C0.21423329 267.29075373 0.80416621 268.86702736 1.4375 271.125 C1.68628906 271.99640625 1.93507812 272.8678125 2.19140625 273.765625 C2.81832717 276.27330867 3.37945771 278.76710253 3.90234375 281.296875 C4.06355713 282.05081543 4.22477051 282.80475586 4.39086914 283.58154297 C4.70872636 285.08731742 5.00929514 286.59686594 5.29077148 288.10986328 C5.97015022 291.31900003 6.7239028 293.66718058 8.83007812 296.20605469 C13.73094876 298.97959115 18.44053238 298.53171322 23.9765625 298.4609375 C25.71986343 298.45956284 25.71986343 298.45956284 27.49838257 298.4581604 C29.95111179 298.45212604 32.40383369 298.4363852 34.85644531 298.41162109 C38.61811342 298.37506692 42.37879766 298.37060214 46.140625 298.37109375 C48.52344604 298.36126434 50.9062604 298.34960811 53.2890625 298.3359375 C54.98127426 298.33259903 54.98127426 298.33259903 56.70767212 298.32919312 C57.75240692 298.31643341 58.79714172 298.30367371 59.87353516 298.29052734 C60.7933316 298.28290375 61.71312805 298.27528015 62.66079712 298.26742554 C65.27053425 298.14941284 65.27053425 298.14941284 68 296 C67.45823085 288.8811716 65.85970326 282.64208649 63.6328125 275.875 C63.28574249 274.79825012 62.93867249 273.72150024 62.58108521 272.61212158 C61.43727021 269.07202852 60.28100356 265.53612957 59.125 262 C58.32584093 259.52983468 57.52734876 257.05945352 56.72949219 254.58886719 C52.6372833 241.95398977 48.46231832 229.34920192 44.18976974 216.77415466 C43.5137822 214.78320723 42.83954717 212.79167532 42.16592407 210.79992676 C41.72505633 209.4968195 41.28416903 208.19371887 40.84326172 206.890625 C40.62781771 206.2537249 40.4123737 205.6168248 40.19040108 204.96062469 C39.11746702 201.79335942 38.03750508 198.62877643 36.94342041 195.46875 C35.72572103 191.94687121 34.52550557 188.41945311 33.328125 184.890625 C32.77489059 183.3179184 32.77489059 183.3179184 32.21047974 181.71343994 C31.88739838 180.75129578 31.56431702 179.78915161 31.23144531 178.79785156 C30.94376282 177.9630426 30.65608032 177.12823364 30.35968018 176.26812744 C29.89843058 173.35950768 30.35059033 172.42194048 32 170 C33.46282649 168.36341753 34.98521047 166.77941632 36.54150391 165.23144531 C37.00021378 164.77244339 37.45892365 164.31344147 37.93153381 163.8405304 C39.4418491 162.33160325 40.95911388 160.82987546 42.4765625 159.328125 C43.5278917 158.28052776 44.57877885 157.23248672 45.62924194 156.184021 C48.39001016 153.4308748 51.15673249 150.68378873 53.92474365 147.93792725 C56.75032928 145.13283084 59.57023445 142.32203679 62.390625 139.51171875 C67.92154374 134.00222468 73.45876589 128.49912123 79 123 C78.72285156 122.39671875 78.44570313 121.7934375 78.16015625 121.171875 C77.79792969 120.37265625 77.43570313 119.5734375 77.0625 118.75 C76.70285156 117.96109375 76.34320313 117.1721875 75.97265625 116.359375 C73.00557109 109.16210819 72.68167685 100.56484792 74.8359375 93.10546875 C77.55237389 87.17124026 81.47535296 82.51659269 87 79 C88.9804242 78.27725215 90.97844417 77.59812747 93 77 C92.51789063 77.72445312 92.03578125 78.44890625 91.5390625 79.1953125 C90.90742188 80.16210938 90.27578125 81.12890625 89.625 82.125 C88.99851562 83.07632813 88.37203125 84.02765625 87.7265625 85.0078125 C83.57240369 92.2071013 82.66790981 99.58389676 84.65234375 107.65234375 C87.36147624 115.1983823 91.79196615 121.59995671 98.9375 125.5 C107.25546535 128.71019246 118.97123444 128.35605643 127.17578125 124.96484375 C132.56968972 122.11196282 136.04600341 118.61552917 138.30859375 112.9921875 C139.24121813 108.95608426 139.39787193 105.07020226 139.4375 100.9375 C139.44765137 100.18186768 139.45780273 99.42623535 139.46826172 98.64770508 C139.35107908 91.05806632 137.31645912 84.63866876 132 79 C129.87396815 77.23676495 129.87396815 77.23676495 128 76 C129.44253657 72.63408134 131.33264727 70.48952921 134 68 C124.42081443 46.79122493 90.81766538 26.79582476 69.98632812 18.16577148 C68.65862475 17.67897955 67.32714813 17.20236183 65.9921875 16.73583984 C63.96735642 15.98794268 62.07055834 15.09757091 60.125 14.1640625 C53.95018678 11.4059205 47.52119129 9.68049893 41 7.9375 C40.02870148 7.6756189 40.02870148 7.6756189 39.03778076 7.40844727 C26.16688436 3.96989025 13.2820302 2.08395629 0 1 C0 0.67 0 0.34 0 0 Z " fill="#F9A300" transform="translate(246,66)"/>
<path d="M0 0 C15.00628309 6.83062798 28.67930037 18.13168779 40.42358398 29.52026367 C42.20928467 31.19644949 44.05588893 32.7874336 45.9140625 34.3828125 C67.03057285 52.74357942 83.09584211 76.36430712 96 101 C96.433125 101.82677246 96.86625 102.65354492 97.3125 103.50537109 C112.69952714 133.30134375 123.27145096 166.89688137 123.3359375 200.6484375 C123.3425943 201.90347076 123.3492511 203.15850403 123.35610962 204.4515686 C123.36616332 207.09188388 123.37092892 209.7322242 123.37060547 212.37255859 C123.37036431 216.33071614 123.41127974 220.28811842 123.44921875 224.24609375 C123.54026585 244.60188483 121.5534466 264.11213488 115.75 283.6875 C115.4519043 284.71528564 115.15380859 285.74307129 114.84667969 286.80200195 C103.93055729 323.56031545 85.19744077 358.34453043 58.66015625 386.1875 C56.5601847 388.40773424 54.57649976 390.65233112 52.625 393 C16.32076429 434.75426625 -43.63755928 462.10459203 -98 468 C-106.55986752 468.57170068 -115.12430122 468.57894103 -123.69970703 468.52148438 C-127.49706841 468.50001657 -131.29253862 468.52143242 -135.08984375 468.546875 C-185.76130404 468.60514306 -243.14101503 450.6100589 -282 417 C-282.99 415.515 -282.99 415.515 -284 414 C-278.55843057 408.40659203 -273.0937006 402.83661283 -267.61206055 397.2824707 C-265.74918798 395.38938149 -263.89173018 393.4909483 -262.03979492 391.5871582 C-259.38036228 388.85513735 -256.70219399 386.14278309 -254.01953125 383.43359375 C-253.19226028 382.57535507 -252.36498932 381.71711639 -251.51264954 380.83287048 C-250.73221786 380.05198563 -249.95178619 379.27110077 -249.14770508 378.46655273 C-248.46597733 377.77150131 -247.78424957 377.07644989 -247.0818634 376.3603363 C-245 375 -245 375 -242.36845398 375.20350647 C-239.71732813 376.09506046 -238.02259496 377.2265886 -235.8125 378.9375 C-216.14472618 393.08094323 -193.48201893 401.6208591 -170 407 C-169.09894531 407.22171875 -168.19789063 407.4434375 -167.26953125 407.671875 C-127.81993802 416.6346053 -86.81970536 410.49773564 -50 395 C-48.865625 394.53078125 -47.73125 394.0615625 -46.5625 393.578125 C-27.88135042 385.30270347 -12.34116207 374.31536901 3 361 C4.29127141 359.93701967 5.58285524 358.87441852 6.875 357.8125 C10.65367593 354.5499359 13.78698029 350.80802336 17 347 C17.83660156 346.05125 18.67320312 345.1025 19.53515625 344.125 C28.60824088 333.77078093 36.32299881 322.67074037 42.70703125 310.45703125 C43.51979041 308.91254329 44.36703776 307.38524016 45.26171875 305.88671875 C55.37920916 288.93912441 60.86102429 267.33149676 64 248 C64.25269653 246.52623901 64.25269653 246.52623901 64.51049805 245.02270508 C65.9835765 235.796444 66.36018898 226.75174604 66.3125 217.4375 C66.31067719 216.69498993 66.30885437 215.95247986 66.30697632 215.18746948 C66.25650438 202.92837917 65.56666024 191.02277693 63 179 C62.83902832 178.23864746 62.67805664 177.47729492 62.51220703 176.69287109 C54.86652342 142.00452941 39.30841041 112.52719089 16 86 C15.35289062 85.23042969 14.70578125 84.46085937 14.0390625 83.66796875 C10.05401979 78.95263541 5.72713877 74.9596931 1 71 C0.16082031 70.26136719 -0.67835938 69.52273437 -1.54296875 68.76171875 C-13.45587775 58.45910642 -26.59348536 49.44055949 -41 43 C-40.42275642 39.34187586 -39.02889418 37.6582397 -36.42993164 35.07348633 C-35.67567398 34.31622757 -34.92141632 33.55896881 -34.14430237 32.77876282 C-33.32453415 31.9713414 -32.50476593 31.16391998 -31.66015625 30.33203125 C-30.40421913 29.07890388 -30.40421913 29.07890388 -29.12290955 27.80046082 C-27.351792 26.03606614 -25.57708012 24.27527326 -23.79907227 22.51782227 C-21.06983113 19.81974742 -18.35141547 17.11113739 -15.63476562 14.40039062 C-13.91468439 12.68947872 -12.19400152 10.97917141 -10.47265625 9.26953125 C-9.65491226 8.45603714 -8.83716827 7.64254303 -7.99464417 6.80439758 C-7.23723434 6.05659531 -6.47982452 5.30879303 -5.69946289 4.53833008 C-4.69805016 3.54715935 -4.69805016 3.54715935 -3.67640686 2.53596497 C-2 1 -2 1 0 0 Z " fill="#FEDD4F" transform="translate(384,44)"/>
<path d="M0 0 C1.86785156 0.20882812 1.86785156 0.20882812 3.7734375 0.421875 C10.02313716 1.03230078 16.19526991 1.19893063 22.47265625 1.078125 C23.20730103 1.0665033 23.9419458 1.05488159 24.69885254 1.04290771 C27.70342363 0.99465233 30.70700126 0.94572636 33.71051025 0.85070801 C35.85276281 0.78438147 37.9936959 0.74901658 40.13671875 0.71875 C42.01677612 0.66992676 42.01677612 0.66992676 43.93481445 0.62011719 C47.1484375 1.171875 47.1484375 1.171875 49.40112305 3.22509766 C51.41563342 6.62249045 52.83220422 10.0571696 54.1171875 13.7734375 C54.52615013 14.91926552 54.52615013 14.91926552 54.94337463 16.08824158 C55.85542247 18.65424962 56.75220999 21.22530228 57.6484375 23.796875 C58.29963492 25.64329382 58.95125833 27.48956244 59.60327148 29.33569336 C67.47577876 51.70875902 75.0230912 74.19544958 82.60076904 96.66966248 C85.93187093 106.54433217 89.2976588 116.40680413 92.67727661 126.26495361 C102.08938764 153.7330966 111.36871472 181.24896588 120.21673584 208.9046936 C120.74895843 210.56540767 121.28393463 212.22524211 121.82183838 213.88412476 C122.56180706 216.1700754 123.29029949 218.45936771 124.015625 220.75 C124.23361755 221.41677261 124.45161011 222.08354523 124.6762085 222.77052307 C125.89328026 226.66792817 126.72155384 230.09946357 126.1484375 234.171875 C123.17170375 237.05484661 121.00240344 237.5542551 116.92431641 237.59179688 C115.88288483 237.60770874 114.84145325 237.62362061 113.76846313 237.64001465 C112.08869888 237.64031677 112.08869888 237.64031677 110.375 237.640625 C108.64024918 237.65204529 108.64024918 237.65204529 106.87045288 237.66369629 C104.4243994 237.67450028 101.97829977 237.6773492 99.53222656 237.67285156 C95.79413631 237.67188038 92.05810578 237.71347916 88.3203125 237.7578125 C85.94271261 237.76302034 83.56510559 237.76570768 81.1875 237.765625 C80.07170563 237.78202026 78.95591125 237.79841553 77.80630493 237.81530762 C69.14293476 237.73836428 69.14293476 237.73836428 65.51245117 234.99829102 C63.00923647 232.00544617 62.09677285 230.13923696 61.28515625 226.35546875 C61.03830078 225.26169922 60.79144531 224.16792969 60.53710938 223.04101562 C60.30572266 221.90857422 60.07433594 220.77613281 59.8359375 219.609375 C59.58521484 218.47306641 59.33449219 217.33675781 59.07617188 216.16601562 C58.61275758 214.06015172 58.15880082 211.95216759 57.7175293 209.84155273 C57.24136723 207.6078195 56.70236967 205.38760369 56.1484375 203.171875 C34.3684375 203.171875 12.5884375 203.171875 -9.8515625 203.171875 C-11.1715625 208.451875 -12.4915625 213.731875 -13.8515625 219.171875 C-17.63610312 233.2112999 -17.63610312 233.2112999 -22.8515625 237.171875 C-26.52892787 237.89895283 -30.14493918 237.82510478 -33.8828125 237.765625 C-34.9514856 237.76566528 -36.02015869 237.76570557 -37.12121582 237.76574707 C-39.37725719 237.76039339 -41.63329819 237.74281736 -43.88916016 237.71386719 C-47.33944792 237.67202193 -50.78778256 237.6727993 -54.23828125 237.6796875 C-56.43230521 237.66919438 -58.62631912 237.65625562 -60.8203125 237.640625 C-61.85063599 237.64042358 -62.88095947 237.64022217 -63.94250488 237.64001465 C-72.76112347 237.49452936 -72.76112347 237.49452936 -76.8515625 234.171875 C-76.30971655 227.94064655 -75.23886885 222.37246302 -73.3515625 216.421875 C-73.09455566 215.58986572 -72.83754883 214.75785645 -72.57275391 213.90063477 C-71.99625574 212.03767608 -71.41613635 210.17583536 -70.83300781 208.31494141 C-69.74063374 204.81662704 -68.66652625 201.31296606 -67.59375 197.80859375 C-67.00099689 195.87827665 -66.40757868 193.94816595 -65.8137207 192.01818848 C-65.24148846 190.15789834 -64.67053179 188.29721598 -64.09960938 186.43652344 C-62.47655826 181.19692238 -60.82077339 175.99840522 -58.890625 170.86328125 C-57.3155802 166.61100294 -55.98597463 162.31809671 -54.73828125 157.9609375 C-52.36598804 149.71460396 -49.7608797 141.54658497 -47.12109375 133.3828125 C-46.90341213 132.70952156 -46.68573051 132.03623062 -46.46145248 131.34253693 C-45.09567835 127.12084329 -43.72647225 122.90026815 -42.35632324 118.67999268 C-41.21975005 115.17777998 -40.08551759 111.67480967 -38.95117188 108.171875 C-38.50032091 106.779858 -38.0494593 105.38784445 -37.59858704 103.99583435 C-37.26399695 102.96282605 -37.26399695 102.96282605 -36.92264748 101.9089489 C-35.79327656 98.42238884 -34.66362042 94.93592123 -33.53393555 91.44946289 C-33.20007103 90.41895986 -33.20007103 90.41895986 -32.85946178 89.36763859 C-31.75062512 85.94535584 -30.64122335 82.52325812 -29.53067017 79.10153198 C-25.17723526 65.68627108 -20.84898214 52.26519719 -16.69921875 38.78515625 C-16.38086563 37.75249634 -16.06251251 36.71983643 -15.73451233 35.65588379 C-14.46413146 31.5315092 -13.19511732 27.40677712 -11.93725586 23.27856445 C-10.99012357 20.17432479 -10.03305418 17.07329767 -9.07421875 13.97265625 C-8.79296646 13.04060867 -8.51171417 12.1085611 -8.22193909 11.14826965 C-7.95413132 10.28763412 -7.68632355 9.4269986 -7.41040039 8.5402832 C-7.18075089 7.78995316 -6.95110138 7.03962311 -6.7144928 6.26655579 C-5.18366616 2.55062051 -4.18232514 0.25208535 0 0 Z " fill="#FEE993" transform="translate(188.8515625,127.828125)"/>
<path d="M0 0 C15.00628309 6.83062798 28.67930037 18.13168779 40.42358398 29.52026367 C42.20928467 31.19644949 44.05588893 32.7874336 45.9140625 34.3828125 C67.1616403 52.85754232 82.75342935 76.40618317 96 101 C96.515625 101.94746094 97.03125 102.89492187 97.5625 103.87109375 C100.45900894 109.39687419 102.49390986 114.9451106 104 121 C104.25410141 121.78171066 104.50820282 122.56342133 104.77000427 123.36882019 C105 126 105 126 103.52577209 128.195755 C102.77742599 128.93077744 102.0290799 129.66579987 101.25805664 130.4230957 C100.41710953 131.26358963 99.57616241 132.10408356 98.70973206 132.970047 C97.78587204 133.8629393 96.86201202 134.7558316 95.91015625 135.67578125 C94.97650742 136.6009404 94.04285858 137.52609955 93.08091736 138.47929382 C90.59997428 140.93734082 88.10154468 143.37684057 85.59906006 145.81292725 C83.0480851 148.30249641 80.51403638 150.80916344 77.97851562 153.31445312 C73.00212457 158.22651832 68.00705378 163.11919972 63 168 C62.01 167.67 61.02 167.34 60 167 C59.00439453 164.8737793 59.00439453 164.8737793 58.1328125 162.07421875 C57.80732422 161.05577881 57.48183594 160.03733887 57.14648438 158.98803711 C56.80939453 157.89885986 56.47230469 156.80968262 56.125 155.6875 C55.41180564 153.47300562 54.69569392 151.25944852 53.9765625 149.046875 C53.63399414 147.98919922 53.29142578 146.93152344 52.93847656 145.84179688 C45.41010633 123.04517109 31.69654445 103.86416249 16 86 C15.35289062 85.23042969 14.70578125 84.46085937 14.0390625 83.66796875 C10.05401979 78.95263541 5.72713877 74.9596931 1 71 C-0.25876953 69.89205078 -0.25876953 69.89205078 -1.54296875 68.76171875 C-13.45587775 58.45910642 -26.59348536 49.44055949 -41 43 C-40.42275642 39.34187586 -39.02889418 37.6582397 -36.42993164 35.07348633 C-35.67567398 34.31622757 -34.92141632 33.55896881 -34.14430237 32.77876282 C-33.32453415 31.9713414 -32.50476593 31.16391998 -31.66015625 30.33203125 C-30.40421913 29.07890388 -30.40421913 29.07890388 -29.12290955 27.80046082 C-27.351792 26.03606614 -25.57708012 24.27527326 -23.79907227 22.51782227 C-21.06983113 19.81974742 -18.35141547 17.11113739 -15.63476562 14.40039062 C-13.91468439 12.68947872 -12.19400152 10.97917141 -10.47265625 9.26953125 C-9.65491226 8.45603714 -8.83716827 7.64254303 -7.99464417 6.80439758 C-7.23723434 6.05659531 -6.47982452 5.30879303 -5.69946289 4.53833008 C-5.0318544 3.87754959 -4.36424591 3.2167691 -3.67640686 2.53596497 C-2 1 -2 1 0 0 Z " fill="#FEE992" transform="translate(384,44)"/>
<path d="M0 0 C15.9687998 -0.35177541 31.31404949 -0.16584647 47 3 C47.71768555 3.13921875 48.43537109 3.2784375 49.17480469 3.421875 C90.29827909 11.5673775 130.08310594 33.5586779 157 66 C158.10214844 67.25296875 158.10214844 67.25296875 159.2265625 68.53125 C166.66711189 77.12921818 173.0161757 86.33834261 179 96 C179.65766357 97.05574219 179.65766357 97.05574219 180.32861328 98.1328125 C193.01689427 118.98865567 200.81562572 144.87224106 204 169 C204.14598633 169.98178223 204.14598633 169.98178223 204.29492188 170.98339844 C208.90764506 205.54610796 202.98413547 241.25440512 189 273 C188.50242187 274.17175781 188.00484375 275.34351563 187.4921875 276.55078125 C177.5602806 299.50856604 162.58406627 318.44480741 145 336 C144.45859375 336.5878125 143.9171875 337.175625 143.359375 337.78125 C132.98213014 348.86374451 119.92714155 357.62607827 106.74365234 365.02099609 C105.06612818 365.96287118 103.40186977 366.92825528 101.73828125 367.89453125 C83.66307872 378.09935039 62.36618191 384.38200768 42 388 C40.32550781 388.30744141 40.32550781 388.30744141 38.6171875 388.62109375 C27.1147727 390.45389611 15.61561063 390.19679778 4 390 C4 389.67 4 389.34 4 389 C4.66193359 388.91548584 5.32386719 388.83097168 6.00585938 388.74389648 C59.32990393 381.73892263 108.3006223 357.93616872 141.6875 314.8125 C173.6033847 272.41073353 187.58553525 220.16303936 180.91479492 167.52026367 C177.92395624 147.41968593 172.01693486 128.19383402 163 110 C162.65743164 109.29327148 162.31486328 108.58654297 161.96191406 107.85839844 C156.38880528 96.4369015 149.63069258 86.14734075 142 76 C141.28457031 75.03835937 140.56914062 74.07671875 139.83203125 73.0859375 C121.55878422 49.68769855 94.4017891 26.66400071 65.9921875 16.73583984 C63.96735642 15.98794268 62.07055834 15.09757091 60.125 14.1640625 C53.95018678 11.4059205 47.52119129 9.68049893 41 7.9375 C40.35246765 7.7629126 39.7049353 7.5883252 39.03778076 7.40844727 C26.16688436 3.96989025 13.2820302 2.08395629 0 1 C0 0.67 0 0.34 0 0 Z " fill="#F68F00" transform="translate(246,66)"/>
<path d="M0 0 C1.12277344 0.00257813 2.24554688 0.00515625 3.40234375 0.0078125 C4.50707031 0.00523437 5.61179687 0.00265625 6.75 0 C9.96579074 0.11897376 13.07186664 0.47684415 16.25805664 0.90576172 C19.84542183 1.29701886 23.42246316 1.27714162 27.02734375 1.2578125 C28.1265918 1.26361328 28.1265918 1.26361328 29.24804688 1.26953125 C33.09402344 1.26259531 36.58904759 0.92375469 40.33984375 0.1328125 C42.42165677 0.04298808 44.50610011 0.00268013 46.58984375 0.0078125 C48.17539062 0.00394531 48.17539062 0.00394531 49.79296875 0 C52.33984375 0.1328125 52.33984375 0.1328125 53.33984375 1.1328125 C53.36906482 2.98436601 53.32596205 4.83711835 53.25390625 6.6875 C53.21007812 7.86183594 53.16625 9.03617188 53.12109375 10.24609375 C53.06953125 11.48746094 53.01796875 12.72882813 52.96484375 14.0078125 C52.92101562 15.17957031 52.8771875 16.35132813 52.83203125 17.55859375 C52.63012273 22.76895535 52.42190196 27.97572843 52.08772278 33.17933655 C51.32013984 45.42565266 51.2315102 57.62911231 51.29524422 69.8965168 C51.31291225 73.40610801 51.32301662 76.91565215 51.3311615 80.42527771 C51.35540037 90.38699765 51.39156881 100.3486522 51.43579102 110.31030273 C51.46248613 116.44000275 51.47957699 122.56966806 51.49065971 128.69941521 C51.49687514 131.02833297 51.50688742 133.35724375 51.5207386 135.68612862 C51.53983802 138.91913521 51.54683258 142.1519546 51.55102539 145.38500977 C51.55978699 146.34849838 51.56854858 147.311987 51.57757568 148.30467224 C51.57627151 149.18027802 51.57496735 150.05588379 51.57362366 150.95802307 C51.57676606 151.72055673 51.57990847 152.48309038 51.5831461 153.26873112 C51.33984375 155.1328125 51.33984375 155.1328125 49.33984375 157.1328125 C46.57052477 158.04806837 44.01358536 158.26648847 41.10961914 158.29394531 C40.28518814 158.30355286 39.46075714 158.3131604 38.61134338 158.32305908 C37.28779091 158.3294339 37.28779091 158.3294339 35.9375 158.3359375 C35.02278427 158.34163757 34.10806854 158.34733765 33.16563416 158.35321045 C31.23323722 158.36264466 29.30082431 158.36918815 27.3684082 158.37304688 C24.41654426 158.38276575 21.46537292 158.41380931 18.51367188 158.4453125 C16.63411871 158.45184175 14.75456058 158.45709253 12.875 158.4609375 C11.55448387 158.4794577 11.55448387 158.4794577 10.20729065 158.49835205 C9.37970749 158.49535095 8.55212433 158.49234985 7.69946289 158.48925781 C6.61502647 158.49472626 6.61502647 158.49472626 5.50868225 158.50030518 C2.23344458 157.94534184 0.78658345 157.47636767 -1.66015625 155.1328125 C-2.41319259 151.47531599 -2.26901697 147.84626314 -2.19604492 144.12573242 C-2.19356247 142.99020432 -2.19108002 141.85467621 -2.18852234 140.68473816 C-2.17478964 136.91040767 -2.12606005 133.13731934 -2.078125 129.36328125 C-2.0637097 126.72985554 -2.05180939 124.09641496 -2.04231262 121.46296692 C-2.0164033 115.21333809 -1.96677424 108.96415485 -1.90716773 102.71476489 C-1.80155051 91.59826445 -1.72938025 80.48156701 -1.67533094 69.364703 C-1.65225773 64.85768138 -1.60958226 60.35110245 -1.56181335 55.84428406 C-1.45731478 43.01268882 -1.81280522 30.42578837 -3.20503235 17.66474915 C-3.79776495 12.18668157 -4.13417419 6.63362537 -3.66015625 1.1328125 C-2.66015625 0.1328125 -2.66015625 0.1328125 0 0 Z " fill="#FEE992" transform="translate(332.66015625,206.8671875)"/>
<path d="M0 0 C0.69895386 0.00141495 1.39790771 0.0028299 2.11804199 0.00428772 C4.31832429 0.00981955 6.51849923 0.02235848 8.71875 0.03515625 C10.22395685 0.04018009 11.72916532 0.04474143 13.234375 0.04882812 C16.89586735 0.05976648 20.55729817 0.07698266 24.21875 0.09765625 C24.21875 0.42765625 24.21875 0.75765625 24.21875 1.09765625 C23.34476563 1.18740723 22.47078125 1.2771582 21.5703125 1.36962891 C-3.99651084 4.05963928 -27.63635231 8.48113302 -51.58349609 18.22070312 C-54.45410378 19.36614001 -57.36826805 20.37808562 -60.28125 21.41015625 C-85.23464789 31.094528 -107.96836789 46.99908963 -127.5625 65.06640625 C-129.55140799 66.8872375 -131.58807976 68.61853031 -133.65625 70.34765625 C-143.96680128 79.37198182 -152.56553013 90.19042112 -160.78125 101.09765625 C-161.19584473 101.63938477 -161.61043945 102.18111328 -162.03759766 102.73925781 C-183.98962732 131.53878939 -200.14946664 167.04162754 -205.84375 202.84765625 C-206.00423828 203.81703125 -206.16472656 204.78640625 -206.33007812 205.78515625 C-206.83543823 208.88632187 -207.3109962 211.99098205 -207.78125 215.09765625 C-207.96292725 216.23485107 -208.14460449 217.3720459 -208.33178711 218.54370117 C-209.84406098 228.6878304 -210.22146932 238.66672086 -210.21875 248.91015625 C-210.2198175 249.77294189 -210.22088501 250.63572754 -210.22198486 251.5246582 C-210.16038104 286.40362469 -204.25246533 324.02196333 -187.78125 355.09765625 C-186.97082265 356.71338167 -186.17846028 358.33832079 -185.40625 359.97265625 C-185.06851563 360.67132813 -184.73078125 361.37 -184.3828125 362.08984375 C-183.61405366 364.65570119 -183.69932015 365.6366141 -184.78125 368.09765625 C-186.99609375 370.67578125 -186.99609375 370.67578125 -189.71875 373.34765625 C-190.61464844 374.2396875 -191.51054687 375.13171875 -192.43359375 376.05078125 C-194.78125 378.09765625 -194.78125 378.09765625 -196.78125 378.09765625 C-218.03192628 339.07525604 -230.58714431 299.41532412 -230.35766602 254.61767578 C-230.34381034 250.86400249 -230.37803501 247.11283997 -230.41601562 243.359375 C-230.48609848 221.5155477 -227.59052284 200.04521354 -221.03125 179.16015625 C-220.69327393 178.05720215 -220.35529785 176.95424805 -220.00708008 175.81787109 C-212.26979406 151.27480986 -200.32080745 128.27709904 -185.78125 107.09765625 C-185.10578125 106.10636719 -184.4303125 105.11507812 -183.734375 104.09375 C-175.18635091 91.96050092 -165.15951268 81.28657231 -154.71875 70.78515625 C-153.80915527 69.86629639 -152.89956055 68.94743652 -151.96240234 68.00073242 C-142.9944362 59.07387416 -133.47126776 51.24456235 -122.90625 44.28515625 C-122.00914307 43.69259033 -121.11203613 43.10002441 -120.18774414 42.48950195 C-85.40538108 19.77319006 -42.44319739 -0.17114192 0 0 Z " fill="#F0CD00" transform="translate(234.78125,9.90234375)"/>
<path d="M0 0 C2.65112585 0.89155399 4.34585902 2.02308213 6.55595398 3.73399353 C23.87985376 16.19191557 43.74930214 24.54875345 64.36845398 29.79649353 C64.36845398 33.79649353 64.36845398 33.79649353 62.85662842 35.78260803 C62.14904892 36.47828888 61.44146942 37.17396973 60.71244812 37.89073181 C59.91484573 38.68480438 59.11724335 39.47887695 58.29547119 40.29701233 C57.42365707 41.14504425 56.55184296 41.99307617 55.65361023 42.86680603 C54.76814011 43.74424469 53.88266998 44.62168335 52.97036743 45.52571106 C50.61522461 47.85672617 48.25209845 50.17897865 45.88426208 52.49705505 C42.54724841 55.76777972 39.22505311 59.05354761 35.9022522 62.33869934 C34.13183365 64.08734455 32.35795205 65.83249154 30.5803833 67.5738678 C29.77962875 68.36163605 28.97887421 69.1494043 28.15385437 69.96104431 C27.44547928 70.65513397 26.73710419 71.34922363 26.00726318 72.06434631 C24.29005876 73.71174338 24.29005876 73.71174338 23.36845398 75.79649353 C17.30369856 75.26166485 12.33622103 72.71832293 6.93095398 70.10899353 C5.92903015 69.62712585 4.92710632 69.14525818 3.89482117 68.64878845 C-34.22447672 49.90709748 -34.22447672 49.90709748 -41.63154602 38.79649353 C-36.18997659 33.20308556 -30.72524662 27.63310636 -25.24360657 22.07896423 C-23.380734 20.18587502 -21.5232762 18.28744183 -19.67134094 16.38365173 C-17.0119083 13.65163088 -14.33374001 10.93927662 -11.65107727 8.23008728 C-10.8238063 7.3718486 -9.99653534 6.51360992 -9.14419556 5.62936401 C-7.97354805 4.45803673 -7.97354805 4.45803673 -6.7792511 3.26304626 C-6.09752335 2.56799484 -5.41579559 1.87294342 -4.71340942 1.15682983 C-2.63154602 -0.20350647 -2.63154602 -0.20350647 0 0 Z " fill="#FEE992" transform="translate(141.6315460205078,419.20350646972656)"/>
<path d="M0 0 C1.19022369 1.6405786 2.37680031 3.28555263 3.48828125 4.98046875 C5.00365162 7.12811226 5.00365162 7.12811226 7.2734375 9.125 C10.93822914 12.98930752 13.54935411 17.27665465 16.3125 21.8125 C16.88210449 22.74231689 17.45170898 23.67213379 18.03857422 24.63012695 C24.57975562 35.43540239 31.21586877 46.55194218 34 59 C34.25192612 59.77736008 34.50385223 60.55472015 34.76341248 61.3556366 C35 64 35 64 33.52577209 66.195755 C32.77742599 66.93077744 32.0290799 67.66579987 31.25805664 68.4230957 C30.41710953 69.26358963 29.57616241 70.10408356 28.70973206 70.970047 C27.78587204 71.8629393 26.86201202 72.7558316 25.91015625 73.67578125 C24.97650742 74.6009404 24.04285858 75.52609955 23.08091736 76.47929382 C20.59997428 78.93734082 18.10154468 81.37684057 15.59906006 83.81292725 C13.0480851 86.30249641 10.51403638 88.80916344 7.97851562 91.31445312 C3.00212457 96.22651832 -1.99294622 101.11919972 -7 106 C-7.99 105.67 -8.98 105.34 -10 105 C-10.99560547 102.8737793 -10.99560547 102.8737793 -11.8671875 100.07421875 C-12.19267578 99.05577881 -12.51816406 98.03733887 -12.85351562 96.98803711 C-13.19060547 95.89885986 -13.52769531 94.80968262 -13.875 93.6875 C-14.58819436 91.47300562 -15.30430608 89.25944852 -16.0234375 87.046875 C-16.36600586 85.98919922 -16.70857422 84.93152344 -17.06152344 83.84179688 C-21.88441912 69.23760704 -29.16492096 55.93658542 -38.41015625 43.70703125 C-40 41 -40 41 -39.8167572 39.07147217 C-38.80114683 36.49566554 -37.48028831 35.10607451 -35.52172852 33.14941406 C-34.78749161 32.40894836 -34.0532547 31.66848267 -33.29676819 30.90557861 C-32.49887375 30.11689392 -31.70097931 29.32820923 -30.87890625 28.515625 C-30.06381088 27.70003113 -29.24871552 26.88443726 -28.40892029 26.04412842 C-26.68497833 24.32252677 -24.95734274 22.60461702 -23.22631836 20.89013672 C-20.5677359 18.25518936 -17.92276214 15.6071353 -15.27929688 12.95703125 C-13.60495834 11.2882678 -11.92985401 9.62027228 -10.25390625 7.953125 C-9.45803604 7.15634338 -8.66216583 6.35956177 -7.84217834 5.53863525 C-7.10478928 4.8107782 -6.36740021 4.08292114 -5.60766602 3.33300781 C-4.95782242 2.68777161 -4.30797882 2.0425354 -3.63844299 1.37774658 C-2 0 -2 0 0 0 Z " fill="#FEE992" transform="translate(454,106)"/>
<path d="M0 0 C3.5 0.3125 3.5 0.3125 6.5 1.3125 C4.50983986 9.7306894 2.12437405 17.94902166 -0.5546875 26.171875 C-0.9381131 27.35992737 -1.3215387 28.54797974 -1.71658325 29.77203369 C-2.93235376 33.53673144 -4.15345935 37.29967101 -5.375 41.0625 C-6.58827889 44.8114009 -7.80042736 48.56066484 -9.01199341 52.31011963 C-9.76211775 54.63030402 -10.51338383 56.95011977 -11.26608276 59.26947021 C-13.18944089 65.20580986 -15.08001021 71.15121565 -16.93383789 77.10961914 C-19.28934946 84.67646544 -21.7158832 92.21902686 -24.16589546 99.75574303 C-24.90336102 102.02445036 -25.63966683 104.2935315 -26.37571716 106.56269836 C-28.20086478 112.18872438 -30.02776621 117.81418044 -31.8548584 123.4395752 C-33.40913525 128.22515599 -34.96260378 133.0109977 -36.51499748 137.79718971 C-37.23199801 140.00670609 -37.95014694 142.21584687 -38.66835022 144.42497253 C-41.04512905 151.74632989 -43.37588735 159.07925349 -45.61755371 166.44338989 C-46.85074539 170.45288345 -48.14783568 174.44089669 -49.44238281 178.4309082 C-52.44001807 187.67606837 -55.31941464 196.92428633 -57.83642578 206.31225586 C-59.24834 211.54632785 -60.9191733 216.64734006 -62.80078125 221.734375 C-63.5997285 224.68021404 -63.61994394 227.27392024 -63.5 230.3125 C-59.50291977 233.01194992 -55.22042033 232.6621439 -50.578125 232.7265625 C-49.28814606 232.75561172 -49.28814606 232.75561172 -47.97210693 232.7852478 C-45.23150479 232.84491814 -42.49086036 232.8913786 -39.75 232.9375 C-37.88930483 232.97569134 -36.02862712 233.01474375 -34.16796875 233.0546875 C-29.61212136 233.15060935 -25.05619121 233.23468668 -20.5 233.3125 C-22.5 236.3125 -22.5 236.3125 -24.83155823 236.9899292 C-27.31205158 237.28978012 -29.69779852 237.45199361 -32.19506836 237.47363281 C-33.09627914 237.48324036 -33.99748993 237.4928479 -34.92601013 237.50274658 C-35.88757523 237.50699646 -36.84914032 237.51124634 -37.83984375 237.515625 C-38.83955704 237.52132507 -39.83927032 237.52702515 -40.86927795 237.53289795 C-42.97981718 237.54232629 -45.09037098 237.54887331 -47.20092773 237.55273438 C-50.42262438 237.56245512 -53.64368687 237.59350545 -56.86523438 237.625 C-58.91926706 237.63152923 -60.97330429 237.63678001 -63.02734375 237.640625 C-63.98688461 237.6529718 -64.94642548 237.6653186 -65.93504333 237.67803955 C-71.23976588 237.660436 -74.87660013 237.22889463 -79.5 234.3125 C-78.95838967 227.57929882 -77.59544826 221.67901894 -75.484375 215.27734375 C-75.16541763 214.28721283 -74.84646027 213.29708191 -74.51783752 212.27694702 C-73.43728431 208.93173482 -72.34381912 205.5908961 -71.25 202.25 C-70.46457849 199.83048757 -69.67968399 197.41080401 -68.89526367 194.9909668 C-66.11469433 186.42562399 -63.30789211 177.86891656 -60.5 169.3125 C-59.93726715 167.59696749 -59.37454361 165.88143192 -58.81182861 164.16589355 C-46.61307304 126.98207358 -34.39599555 89.80335032 -21.93704224 52.70574951 C-19.03376923 44.05823966 -16.18682421 35.39987523 -13.49609375 26.68359375 C-13.25897171 25.91632965 -13.02184967 25.14906555 -12.77754211 24.35855103 C-11.68786741 20.8233016 -10.609549 17.2852279 -9.55200195 13.74023438 C-9.18937256 12.54591797 -8.82674316 11.35160156 -8.453125 10.12109375 C-8.14536133 9.08782959 -7.83759766 8.05456543 -7.52050781 6.98999023 C-5.80962243 2.50116728 -4.95973793 0.44283374 0 0 Z " fill="#F68F01" transform="translate(176.5,131.6875)"/>
<path d="M0 0 C0.31710938 0.69222656 0.63421875 1.38445312 0.9609375 2.09765625 C6.92730381 14.60724748 14.67952623 25.77508021 23.50854492 36.43310547 C27.62436541 41.4771429 27.62436541 41.4771429 28 45 C26.08977315 47.38235077 24.22384516 49.40442612 22.04296875 51.515625 C21.11572746 52.4393692 21.11572746 52.4393692 20.16975403 53.3817749 C18.85980803 54.68197098 17.5438402 55.97612364 16.22241211 57.26464844 C14.1938481 59.24380651 12.18456389 61.24101796 10.17773438 63.2421875 C8.90473471 64.50110201 7.63068093 65.7589517 6.35546875 67.015625 C5.75018845 67.6155426 5.14490814 68.21546021 4.52128601 68.83355713 C0.23321782 73 0.23321782 73 -2 73 C-2.20625 73.53625 -2.4125 74.0725 -2.625 74.625 C-4.57996944 78.0017654 -7.18223695 80.30474839 -10 83 C-20.75567764 78.52661589 -28.33045431 64.30793183 -34.64306641 54.99462891 C-35.87382884 53.1854657 -37.12657859 51.39421106 -38.38671875 49.60546875 C-39.04285156 48.64253906 -39.69898438 47.67960937 -40.375 46.6875 C-40.93960938 45.86636719 -41.50421875 45.04523438 -42.0859375 44.19921875 C-43 42 -43 42 -42.28636169 40.10894775 C-40.85360881 37.75999646 -39.27132698 36.01017285 -37.33227539 34.05761719 C-36.58132095 33.29713074 -35.83036652 32.53664429 -35.05665588 31.75311279 C-34.245186 30.94255432 -33.43371613 30.13199585 -32.59765625 29.296875 C-31.76415146 28.45908508 -30.93064667 27.62129517 -30.07188416 26.75811768 C-28.30999846 24.9904924 -26.54549043 23.22547763 -24.77856445 21.46289062 C-22.06769126 18.75518519 -19.3704232 16.03441637 -16.67382812 13.3125 C-14.96174838 11.59814815 -13.24888424 9.88457921 -11.53515625 8.171875 C-10.7257106 7.3532196 -9.91626495 6.53456421 -9.08229065 5.69110107 C-8.32818405 4.94322327 -7.57407745 4.19534546 -6.79711914 3.42480469 C-6.13474747 2.76180359 -5.47237579 2.09880249 -4.78993225 1.41571045 C-3 0 -3 0 0 0 Z " fill="#FEE992" transform="translate(82,348)"/>
<path d="M0 0 C5.35449449 3.31412545 9.77190277 8.77025461 11.54418945 14.87426758 C13.45822876 23.80064155 13.44582027 35.10430578 8.6171875 43.015625 C3.98150437 48.70385454 -0.88063709 51.33757285 -8 53 C-17.45736241 53.91585059 -26.18126681 54.00042314 -34 48 C-40.68173642 42.07468657 -44.28049542 36.20231167 -45.30859375 27.33984375 C-45.68291547 19.27491215 -43.64830921 12.12669606 -38.6875 5.6875 C-27.88975879 -5.11024121 -13.66608002 -7.57846256 0 0 Z " fill="#FEE992" transform="translate(374,141)"/>
<path d="M0 0 C7.75684351 4.31389367 13.46060562 11.22174191 19.1796875 17.8984375 C21.28417153 20.32807786 23.45464424 22.69158331 25.625 25.0625 C29.07169661 28.87448753 32.12955552 32.74063077 35 37 C34.505 37.99 34.505 37.99 34 39 C29 33.25 29 33.25 29 31 C23.62032081 35.6004965 18.49181274 40.36973336 13.5078125 45.39453125 C12.83579803 46.06796066 12.16378357 46.74139008 11.47140503 47.43522644 C9.35354692 49.55861851 7.23921532 51.68548151 5.125 53.8125 C3.68512973 55.25739458 2.24502751 56.70205806 0.8046875 58.14648438 C-2.34449577 61.30543744 -5.49146898 64.46657255 -8.63644409 67.62971497 C-9.75598562 68.75478141 -10.87769262 69.87769262 -12 71 C-12.40089844 70.46632813 -12.80179687 69.93265625 -13.21484375 69.3828125 C-17.21043716 64.14595765 -21.42732714 59.20688417 -25.88671875 54.359375 C-27.32293402 52.755911 -28.70510299 51.10271923 -30.03515625 49.41015625 C-31.81870098 47.22238866 -33.58187943 45.48036893 -35.75 43.6875 C-36.67039062 42.91986328 -36.67039062 42.91986328 -37.609375 42.13671875 C-38.06828125 41.76160156 -38.5271875 41.38648438 -39 41 C-35.4881923 37.48055424 -31.96073245 33.97732366 -28.42779541 30.47909546 C-25.47446629 27.55250865 -22.52641223 24.62063234 -19.57861328 21.68847656 C-18.020809 20.1407985 -16.46122449 18.59491036 -14.89990234 17.05078125 C-12.64211605 14.81717028 -10.39077709 12.57723568 -8.140625 10.3359375 C-7.08914276 9.29993912 -7.08914276 9.29993912 -6.01641846 8.24301147 C-5.37194763 7.59869171 -4.72747681 6.95437195 -4.06347656 6.29052734 C-3.49453674 5.72602875 -2.92559692 5.16153015 -2.3394165 4.57992554 C-0.76834566 2.92547918 -0.76834566 2.92547918 0 0 Z " fill="#FEDD4F" transform="translate(425,75)"/>
<path d="M0 0 C0.928125 0.9590625 0.928125 0.9590625 1.875 1.9375 C8.74853423 8.79183442 16.17696361 15.06174439 23.62109375 21.28173828 C26.18812095 23.43272462 28.65488031 25.61040465 31 28 C30.51114319 28.41576294 30.02228638 28.83152588 29.51861572 29.2598877 C24.55566249 33.53377685 19.91466527 38.0164874 15.359375 42.71875 C13.94590289 44.15943364 12.5318232 45.59952139 11.1171875 47.0390625 C8.91677788 49.28298584 6.72051776 51.53044376 4.53417969 53.78808594 C2.40384219 55.98467116 0.25822582 58.16529338 -1.890625 60.34375 C-2.54484436 61.02691284 -3.19906372 61.71007568 -3.87310791 62.41394043 C-4.48764832 63.03208618 -5.10218872 63.65023193 -5.73535156 64.28710938 C-6.27081604 64.83669312 -6.80628052 65.38627686 -7.35797119 65.95251465 C-9 67 -9 67 -11.03045654 66.81115723 C-14.21960913 65.49770351 -16.48163949 63.10271659 -18.9375 60.75 C-19.49655029 60.22438477 -20.05560059 59.69876953 -20.6315918 59.15722656 C-26.88577845 53.23872398 -32.95657468 47.13244467 -39 41 C-38.10698344 39.93513145 -37.2104053 38.87324959 -36.3125 37.8125 C-35.81363281 37.22082031 -35.31476563 36.62914062 -34.80078125 36.01953125 C-32.62543785 33.57993789 -30.3181446 31.30493522 -28 29 C-27.51122879 28.5137767 -27.02245758 28.02755341 -26.51887512 27.52659607 C-25.46031725 26.47360599 -24.40154593 25.42083046 -23.34259033 24.36824036 C-20.94059847 21.97966467 -18.54129579 19.58839508 -16.14208984 17.19702148 C-14.8744157 15.93441804 -13.60585172 14.67270741 -12.33642578 13.41186523 C-10.497985 11.58550388 -8.66274903 9.75597557 -6.828125 7.92578125 C-6.25837952 7.36119705 -5.68863403 6.79661285 -5.10162354 6.21492004 C-2.19122489 3.38062421 -2.19122489 3.38062421 0 0 Z " fill="#FEDD4F" transform="translate(110,391)"/>
<path d="M0 0 C3.4375 0.1875 3.4375 0.1875 4.4375 1.1875 C7.5648298 20.75534398 7.85694859 40.60639357 7.73046875 60.3671875 C7.72485008 63.01474767 7.7204425 65.66228313 7.71760559 68.30984497 C7.708439 74.47130436 7.68404436 80.6325958 7.65355712 86.79398263 C7.61952037 93.83200526 7.60340597 100.87003777 7.58847082 107.90812278 C7.55747237 122.33466679 7.50502694 136.76108104 7.4375 151.1875 C10.28174406 152.67612367 12.24804917 153.44354966 15.47167969 153.50634766 C16.25218689 153.52621735 17.03269409 153.54608704 17.83685303 153.56655884 C18.66928528 153.57811005 19.50171753 153.58966125 20.359375 153.6015625 C21.64935394 153.63061172 21.64935394 153.63061172 22.96539307 153.6602478 C25.70599521 153.71991814 28.44663964 153.7663786 31.1875 153.8125 C33.04819517 153.85069134 34.90887288 153.88974375 36.76953125 153.9296875 C41.32537864 154.02560935 45.88130879 154.10968668 50.4375 154.1875 C50.4375 154.8475 50.4375 155.5075 50.4375 156.1875 C45.27005158 158.27898736 40.79034568 158.48000078 35.3125 158.453125 C34.44737793 158.45503845 33.58225586 158.4569519 32.69091797 158.45892334 C30.86881213 158.46027932 29.04669644 158.45662405 27.22460938 158.44824219 C24.44639241 158.43753427 21.66882201 158.4481574 18.890625 158.4609375 C17.11458192 158.4596158 15.33853923 158.45705319 13.5625 158.453125 C12.3247583 158.45919769 12.3247583 158.45919769 11.06201172 158.46539307 C0.63119548 158.38119548 0.63119548 158.38119548 -2.5625 155.1875 C-2.65236411 152.73503112 -2.67744021 150.31095186 -2.66015625 147.85839844 C-2.65796585 146.7037484 -2.65796585 146.7037484 -2.6557312 145.52577209 C-2.65190936 143.84085203 -2.64577643 142.15593606 -2.63766479 140.47103119 C-2.62484423 137.76398423 -2.61836561 135.05698683 -2.61352539 132.34991455 C-2.60017008 125.59077463 -2.57660363 118.83167837 -2.55212402 112.0725708 C-2.47785466 91.30712556 -2.43746034 70.55265592 -2.99609375 49.79296875 C-3.01547501 49.04531502 -3.03485626 48.29766129 -3.05482483 47.52735138 C-3.36392312 35.96176935 -4.08115503 24.46237185 -5.16015625 12.94140625 C-5.81384816 5.56198272 -5.81384816 5.56198272 -5.5625 2.1875 C-3.5625 0.1875 -3.5625 0.1875 0 0 Z " fill="#F68E00" transform="translate(324.5625,210.8125)"/>
<path d="M0 0 C3.5526434 3.5526434 4.31277474 8.77298243 5.75 13.5 C6.10126953 14.65169678 6.45253906 15.80339355 6.81445312 16.98999023 C9.29561855 25.28962367 11.5139668 33.6309971 13.5 42.0625 C13.75491211 43.1246875 14.00982422 44.186875 14.27246094 45.28125 C15.64768783 51.33764896 16.25844745 56.79080012 16 63 C12.53426961 65.12051434 9.79741792 65.24553431 5.7734375 65.23046875 C4.5771875 65.22853516 3.3809375 65.22660156 2.1484375 65.22460938 C0.90320313 65.21236328 -0.34203125 65.20011719 -1.625 65.1875 C-2.87796875 65.18685547 -4.1309375 65.18621094 -5.421875 65.18554688 C-14.7192697 65.14036515 -14.7192697 65.14036515 -17 64 C-17.14685002 58.64878525 -16.79517804 54.15802768 -15.4375 48.9375 C-15.26404053 48.27049072 -15.09058105 47.60348145 -14.91186523 46.91625977 C-5.20758687 10.41517374 -5.20758687 10.41517374 0 0 Z " fill="#F68F02" transform="translate(212,210)"/>
<path d="M0 0 C1.84717873 -0.01441132 1.84717873 -0.01441132 3.73167419 -0.02911377 C5.0816123 -0.03396103 6.43155255 -0.03824004 7.78149414 -0.04199219 C9.16150414 -0.04774333 10.54151411 -0.05350107 11.92152405 -0.05926514 C14.81585055 -0.06977362 17.71014929 -0.07561748 20.60449219 -0.07910156 C24.3148192 -0.08459036 28.02477998 -0.10862675 31.73499203 -0.13707352 C34.5857094 -0.15568737 37.43633826 -0.16090478 40.28711128 -0.16243744 C41.65507576 -0.16546665 43.02303859 -0.17350429 44.39094353 -0.18662262 C46.3035241 -0.2036572 48.21625547 -0.19996181 50.12890625 -0.1953125 C51.76199989 -0.20078094 51.76199989 -0.20078094 53.42808533 -0.20635986 C56.12915039 0.16113281 56.12915039 0.16113281 57.95362854 1.56573486 C59.34338368 3.45188654 59.9333166 5.02816017 60.56665039 7.28613281 C60.81543945 8.15753906 61.06422852 9.02894531 61.32055664 9.92675781 C61.94747756 12.43444149 62.5086081 14.92823534 63.03149414 17.45800781 C63.19270752 18.21194824 63.3539209 18.96588867 63.52001953 19.74267578 C63.83787675 21.24845023 64.13844553 22.75799875 64.41992188 24.27099609 C65.10867347 27.52440682 65.84133933 29.82932962 68.03466797 32.35791016 C72.58662788 35.01043685 76.71559129 34.76415404 81.89868164 34.77050781 C82.93482101 34.78704407 83.97096039 34.80358032 85.03849792 34.82061768 C88.33960902 34.8691037 91.64025938 34.89047059 94.94165039 34.91113281 C97.18321003 34.93929189 99.42474821 34.96921922 101.66625977 35.00097656 C107.15380632 35.07486268 112.64122327 35.12650173 118.12915039 35.16113281 C116.12915039 38.16113281 116.12915039 38.16113281 113.12915039 39.16113281 C111.48368447 39.25834583 109.83459904 39.29929109 108.1862793 39.30639648 C107.181586 39.31277634 106.1768927 39.31915619 105.14175415 39.32572937 C103.51516373 39.32739861 103.51516373 39.32739861 101.85571289 39.32910156 C100.73981781 39.33242996 99.62392273 39.33575836 98.47421265 39.33918762 C96.11212578 39.34425329 93.75003175 39.34659606 91.38793945 39.34643555 C87.77551459 39.34861989 84.16339612 39.36677379 80.55102539 39.38574219 C78.2567556 39.3886766 75.96248436 39.39066108 73.66821289 39.39160156 C72.58786774 39.39878708 71.50752258 39.4059726 70.3944397 39.41337585 C69.38344208 39.41029922 68.37244446 39.4072226 67.33081055 39.40405273 C66.4449527 39.40547775 65.55909485 39.40690277 64.64639282 39.40837097 C61.11021997 39.06105565 58.25586955 38.00865924 55.41479492 35.87158203 C53.70943322 33.60273203 53.21882547 31.55123707 52.55883789 28.79394531 C52.30231445 27.74335938 52.04579102 26.69277344 51.78149414 25.61035156 C51.5249707 24.51335937 51.26844727 23.41636719 51.00415039 22.28613281 C50.73989258 21.196875 50.47563477 20.10761719 50.20336914 18.98535156 C49.09471805 14.38754475 48.05691625 9.79996213 47.12915039 5.16113281 C28.64915039 4.83113281 10.16915039 4.50113281 -8.87084961 4.16113281 C-8.54084961 3.17113281 -8.21084961 2.18113281 -7.87084961 1.16113281 C-5.16425736 -0.19216331 -3.03028206 0.01901842 0 0 Z " fill="#F69005" transform="translate(186.870849609375,329.8388671875)"/>
<path d="M0 0 C0.66 0.33 1.32 0.66 2 1 C1.60167969 1.4846875 1.20335937 1.969375 0.79296875 2.46875 C-4.95628943 9.74275062 -7.65559365 15.80492886 -7.34375 25.19921875 C-6.31590299 33.57383588 -2.35230695 40.49890218 4 46 C11.31889851 51.21698345 20.3684544 50.78818293 29 51 C22.38912297 56.63148784 13.22598835 55.60025198 5 55 C-2.38677976 53.29235607 -9.16105053 49.48346289 -13.28125 42.9765625 C-17.59410948 34.68971106 -18.78872406 25.19366601 -16.1640625 16.10546875 C-12.91659379 9.01116629 -7.36018484 2.9379532 0 0 Z " fill="#F68F01" transform="translate(337,143)"/>
<path d="M0 0 C2 1 2 1 2.94555664 3.7722168 C3.26387451 4.98562744 3.58219238 6.19903809 3.91015625 7.44921875 C4.16870644 8.42457329 4.16870644 8.42457329 4.43247986 9.41963196 C4.79674234 10.79983905 5.15711213 12.18107839 5.51391602 13.56323242 C6.05631949 15.66356738 6.61002118 17.76064851 7.16601562 19.85742188 C9.40545945 28.37967378 11.15216554 36.17439887 11 45 C7.87501937 45.02895976 4.7500731 45.04678483 1.625 45.0625 C0.73554688 45.07087891 -0.15390625 45.07925781 -1.0703125 45.08789062 C-2.34648437 45.09272461 -2.34648437 45.09272461 -3.6484375 45.09765625 C-4.82672119 45.10551147 -4.82672119 45.10551147 -6.02880859 45.11352539 C-8 45 -8 45 -10 44 C-10.15537437 38.57384884 -9.7603324 34.04354657 -8.375 28.75 C-8.20258789 28.08613281 -8.03017578 27.42226563 -7.85253906 26.73828125 C-5.47565934 17.75804244 -2.7289215 8.87809128 0 0 Z " fill="#FEBC02" transform="translate(205,230)"/>
<path d="M0 0 C2.43369285 1.09161757 3.51642646 2.27478754 5.19921875 4.33984375 C5.80378906 5.06042969 6.40835938 5.78101563 7.03125 6.5234375 C7.68480469 7.30847656 8.33835937 8.09351563 9.01171875 8.90234375 C14.6295935 15.40346754 20.45007926 21.34899402 27.01171875 26.90234375 C26.05441959 28.02822389 25.0958398 29.15301525 24.13671875 30.27734375 C23.60304687 30.90382813 23.069375 31.5303125 22.51953125 32.17578125 C21.39739868 33.46071026 20.217999 34.6960635 19.01171875 35.90234375 C14.70248325 35.78717487 12.00331536 32.45842095 9.07421875 29.65234375 C8.51516846 29.12672852 7.95611816 28.60111328 7.38012695 28.05957031 C1.1259403 22.14106773 -4.94485593 16.03478842 -10.98828125 9.90234375 C-10.05237621 8.79682485 -9.11448267 7.69298922 -8.17578125 6.58984375 C-7.65371094 5.97496094 -7.13164063 5.36007812 -6.59375 4.7265625 C-6.06394531 4.12457031 -5.53414063 3.52257812 -4.98828125 2.90234375 C-4.27091797 2.01482422 -4.27091797 2.01482422 -3.5390625 1.109375 C-1.98828125 -0.09765625 -1.98828125 -0.09765625 0 0 Z " fill="#F0CD00" transform="translate(81.98828125,422.09765625)"/>
<path d="M0 0 C0.99 0 1.98 0 3 0 C3 0.66 3 1.32 3 2 C3.68449219 2.11085938 4.36898437 2.22171875 5.07421875 2.3359375 C8.49266808 3.11182053 11.5547496 4.32745085 14.8125 5.625 C37.97986093 14.55881892 61.46262702 19.01637313 86 22 C86 22.33 86 22.66 86 23 C53.85399036 23.93197619 25.03091164 18.23172027 -5 7 C-3.47793991 4.37098712 -2.15634036 2.15634036 0 0 Z " fill="#F0CD03" transform="translate(169,489)"/>
<path d="M0 0 C1.37899979 0.00666183 1.37899979 0.00666183 2.78585815 0.01345825 C3.82678619 0.01360931 4.86771423 0.01376038 5.94018555 0.01391602 C7.63085648 0.02939987 7.63085648 0.02939987 9.35568237 0.04519653 C10.50704681 0.04802643 11.65841125 0.05085632 12.84466553 0.05377197 C16.533338 0.06499496 20.22177041 0.09010347 23.91036987 0.11550903 C26.40646012 0.12553609 28.90255417 0.13466241 31.39865112 0.14285278 C37.52763971 0.1649412 43.65648765 0.19843957 49.78536987 0.24050903 C49.78536987 0.57050903 49.78536987 0.90050903 49.78536987 1.24050903 C46.15536987 1.24050903 42.52536987 1.24050903 38.78536987 1.24050903 C38.45536987 1.90050903 38.12536987 2.56050903 37.78536987 3.24050903 C33.25046172 3.26544086 28.71559449 3.2834776 24.18063354 3.29544067 C22.64156396 3.30043399 21.10249904 3.30723097 19.56344604 3.31594849 C11.57811393 3.36000907 3.7090435 3.38534015 -4.21463013 2.24050903 C-2.21463013 0.24050903 -2.21463013 0.24050903 0 0 Z " fill="#FFC111" transform="translate(198.21463012695313,126.75949096679688)"/>
<path d="M0 0 C7.26 0 14.52 0 22 0 C22 0.33 22 0.66 22 1 C19.10452736 1.33675279 16.20868928 1.66951734 13.3125 2 C12.49587891 2.09539063 11.67925781 2.19078125 10.83789062 2.2890625 C6.87139948 2.73870522 2.99997537 3.13034543 -1 3 C-0.67 2.01 -0.34 1.02 0 0 Z " fill="#F2CF0D" transform="translate(237,10)"/>
</svg>
