<svg width="22" height="16" viewBox="0 0 22 16" fill="none" xmlns="http://www.w3.org/2000/svg">
<path d="M6 5H16C17.87 5 18.804 5 19.5 5.402C19.956 5.66529 20.3347 6.04398 20.598 6.5C21 7.196 21 8.13 21 10C21 11.87 21 12.804 20.598 13.5C20.3347 13.956 19.956 14.3347 19.5 14.598C18.804 15 17.87 15 16 15H15.606C14.919 15 14.576 15 14.255 14.929C13.8248 14.8335 13.4209 14.6443 13.072 14.375C12.812 14.173 12.592 13.91 12.152 13.382C11.802 12.962 11.626 12.752 11.425 12.657C11.292 12.5946 11.1469 12.5622 11 12.5622C10.8531 12.5622 10.708 12.5946 10.575 12.657C10.374 12.751 10.199 12.961 9.848 13.382C9.408 13.91 9.188 14.173 8.928 14.375C8.57915 14.6443 8.17524 14.8335 7.745 14.929C7.425 15 7.081 15 6.394 15H6C4.13 15 3.196 15 2.5 14.598C2.04398 14.3347 1.66529 13.956 1.402 13.5C1 12.804 1 11.87 1 10C1 8.13 1 7.196 1.402 6.5C1.66529 6.04398 2.04398 5.66529 2.5 5.402C3.196 5 4.13 5 6 5ZM4 8H6Z" fill="white"/>
<path d="M4 8H6M6 5H16C17.87 5 18.804 5 19.5 5.402C19.956 5.66529 20.3347 6.04398 20.598 6.5C21 7.196 21 8.13 21 10C21 11.87 21 12.804 20.598 13.5C20.3347 13.956 19.956 14.3347 19.5 14.598C18.804 15 17.87 15 16 15H15.606C14.919 15 14.576 15 14.255 14.929C13.8248 14.8335 13.4209 14.6443 13.072 14.375C12.812 14.173 12.592 13.91 12.152 13.382C11.802 12.962 11.626 12.752 11.425 12.657C11.292 12.5946 11.1469 12.5622 11 12.5622C10.8531 12.5622 10.708 12.5946 10.575 12.657C10.374 12.751 10.199 12.961 9.848 13.382C9.408 13.91 9.188 14.173 8.928 14.375C8.57915 14.6443 8.17524 14.8335 7.745 14.929C7.425 15 7.081 15 6.394 15H6C4.13 15 3.196 15 2.5 14.598C2.04398 14.3347 1.66529 13.956 1.402 13.5C1 12.804 1 11.87 1 10C1 8.13 1 7.196 1.402 6.5C1.66529 6.04398 2.04398 5.66529 2.5 5.402C3.196 5 4.13 5 6 5Z" stroke="white" stroke-width="1.5" stroke-linecap="round" stroke-linejoin="round"/>
<path d="M21 9V7.828C21 6.675 21 6.098 20.847 5.56C20.7626 5.26476 20.6445 4.98022 20.495 4.712C20.224 4.224 19.815 3.816 19 3C18.185 2.184 17.776 1.776 17.288 1.505C17.0198 1.35551 16.7352 1.2374 16.44 1.153C15.902 1 15.325 1 14.172 1H7.828C6.675 1 6.098 1 5.56 1.153C5.26476 1.2374 4.98022 1.35551 4.712 1.505C4.224 1.776 3.816 2.185 3 3C2.184 3.815 1.776 4.224 1.505 4.712C1.35551 4.98022 1.2374 5.26476 1.153 5.56C1 6.098 1 6.675 1 7.828V9" stroke="white" stroke-width="1.5" stroke-linecap="round" stroke-linejoin="round"/>
<rect x="3.5752" y="7.57422" width="2.75" height="0.75" rx="0.375" fill="black" stroke="black" stroke-width="0.75"/>
</svg>
