<svg width="14" height="16" viewBox="0 0 14 16" fill="none" xmlns="http://www.w3.org/2000/svg">
<path fillRule="evenodd" clipRule="evenodd" d="M12.006 7.13318L3.5 2.21618C3.34798 2.12841 3.17554 2.08221 3.00001 2.0822C2.82447 2.0822 2.65203 2.12841 2.50001 2.21617C2.34799 2.30394 2.22175 2.43017 2.13398 2.58219C2.04621 2.7342 2 2.90664 2 3.08218V12.9162C2 13.0917 2.04621 13.2642 2.13398 13.4162C2.22175 13.5682 2.34799 13.6944 2.50001 13.7822C2.65203 13.87 2.82447 13.9162 3.00001 13.9162C3.17554 13.9162 3.34798 13.8699 3.5 13.7822L12.006 8.86518C12.158 8.77741 12.2842 8.65117 12.372 8.49916C12.4598 8.34714 12.506 8.17471 12.506 7.99918C12.506 7.82365 12.4598 7.65122 12.372 7.4992C12.2842 7.34719 12.158 7.22095 12.006 7.13318ZM12.756 10.1632C14.421 9.20118 14.421 6.79718 12.756 5.83418L4.251 0.917179C2.585 -0.0458206 0.5 1.15718 0.5 3.08218V12.9162C0.5 14.8412 2.585 16.0442 4.251 15.0802L12.756 10.1632Z" fill="#868686"/>
</svg>
