<svg width="10" height="15" viewBox="0 0 10 15" fill="none" xmlns="http://www.w3.org/2000/svg">
<path d="M2.625 13.1914V12.125H6.97266V13.1914C6.97266 13.3555 6.91797 13.5195 6.83594 13.6836L6.37109 14.3672C6.20703 14.6133 5.93359 14.7773 5.63281 14.7773H3.96484C3.66406 14.7773 3.39062 14.6133 3.22656 14.3672L2.76172 13.6836C2.65234 13.5195 2.625 13.3555 2.625 13.1914ZM0 5.5625C0 3.01953 1.99609 0.777344 4.78516 0.75C7.4375 0.75 9.625 2.91016 9.625 5.5625C9.625 6.79297 9.16016 7.88672 8.42188 8.73438C7.95703 9.25391 7.27344 10.3477 7 11.25C7 11.25 7 11.25 7 11.2773H2.59766C2.59766 11.25 2.59766 11.25 2.59766 11.25C2.32422 10.3477 1.64062 9.25391 1.17578 8.73438C0.4375 7.88672 0 6.79297 0 5.5625ZM4.8125 3.375C5.03125 3.375 5.25 3.18359 5.25 2.9375C5.25 2.71875 5.03125 2.5 4.8125 2.5C3.11719 2.5 1.75 3.89453 1.75 5.5625C1.75 5.80859 1.94141 6 2.1875 6C2.40625 6 2.625 5.80859 2.625 5.5625C2.625 4.35938 3.58203 3.375 4.8125 3.375Z" fill="white"/>
</svg>
