<svg
  width="20"
  height="20"
  viewBox="0 0 20 20"
  fill="none"
  xmlns="http://www.w3.org/2000/svg"
>
<path
    d="M10.0001 19C11.963 18.9996 13.872 18.3574 15.4361 17.1713C17.0002 15.9853 18.1336 14.3204 18.6637 12.4304C19.1938 10.5404 19.0914 8.52892 18.3722 6.70249C17.653 4.87606 16.3564 3.33484 14.68 2.31369C13.0036 1.29254 11.0393 0.847472 9.08644 1.0463C7.1336 1.24513 5.29931 2.07695 3.8631 3.41501C2.42689 4.75306 1.46751 6.52398 1.13116 8.45788C0.794818 10.3918 1.09995 12.3826 2.00007 14.127L1.00007 19L5.87307 18C7.10907 18.639 8.51307 19 10.0001 19Z"
    stroke="black"
    strokeWidth="1.5"
    strokeLinecap="round"
    strokeLinejoin="round"
  />
<path
    d="M5.5 10H5.51V10.01H5.5V10ZM10 10H10.01V10.01H10V10ZM14.5 10H14.51V10.01H14.5V10Z"
    stroke="black"
    strokeWidth="2.25"
    strokeLinejoin="round"
  />
</svg>
