<svg width="18" height="18" viewBox="0 0 18 18" fill="none" xmlns="http://www.w3.org/2000/svg">
<g clip-path="url(#clip0_980_2)">
<path d="M9 0.5C9.02378 0.5 9.04677 0.508472 9.06487 0.523893C9.06491 0.523931 9.06496 0.523969 9.065 0.524007L17.5 7.75401V16.2C17.5 16.5448 17.363 16.8755 17.1192 17.1193C16.8754 17.3631 16.5448 17.5 16.2 17.5H11.4C11.3735 17.5 11.348 17.4895 11.3293 17.4707C11.3105 17.452 11.3 17.4266 11.3 17.4V13.8C11.3 13.19 11.0577 12.605 10.6263 12.1737C10.195 11.7424 9.61 11.5 9 11.5C8.39 11.5 7.80499 11.7424 7.37365 12.1737C6.94232 12.605 6.7 13.19 6.7 13.8V17.4C6.7 17.4266 6.68946 17.452 6.67071 17.4707C6.65196 17.4895 6.62652 17.5 6.6 17.5H1.8C1.45522 17.5 1.12456 17.3631 0.880761 17.1193C0.636964 16.8755 0.5 16.5448 0.5 16.2V7.75401L8.935 0.524007C8.93505 0.523969 8.93509 0.52393 8.93513 0.523892C8.95323 0.508472 8.97622 0.5 9 0.5Z" fill="#89FF00" stroke="#89FF00"/>
</g>
<defs>
<clipPath id="clip0_980_2">
<rect width="18" height="18" fill="white"/>
</clipPath>
</defs>
</svg>
