<svg width="18" height="18" viewBox="0 0 18 18" fill="none" xmlns="http://www.w3.org/2000/svg">
<g clip-path="url(#clip0_656_2)">
<path d="M9 0.600039L9.39 0.144039C9.28132 0.0510818 9.14301 0 9 0C8.85699 0 8.71868 0.0510818 8.61 0.144039L9 0.600039ZM0.6 7.80004L0.21 7.34404L0 7.52404V7.80004H0.6ZM6.6 17.4V18C6.75913 18 6.91174 17.9368 7.02426 17.8243C7.13679 17.7118 7.2 17.5592 7.2 17.4H6.6ZM11.4 17.4H10.8C10.8 17.5592 10.8632 17.7118 10.9757 17.8243C11.0883 17.9368 11.2409 18 11.4 18V17.4ZM17.4 7.80004H18V7.52404L17.79 7.34404L17.4 7.80004ZM1.8 18H6.6V16.8H1.8V18ZM17.79 7.34404L9.39 0.144039L8.61 1.05604L17.01 8.25604L17.79 7.34404ZM8.61 0.144039L0.21 7.34404L0.99 8.25604L9.39 1.05604L8.61 0.144039ZM7.2 17.4V13.8H6V17.4H7.2ZM10.8 13.8V17.4H12V13.8H10.8ZM11.4 18H16.2V16.8H11.4V18ZM18 16.2V7.80004H16.8V16.2H18ZM0 7.80004V16.2H1.2V7.80004H0ZM9 12C9.47739 12 9.93523 12.1897 10.2728 12.5272C10.6104 12.8648 10.8 13.3226 10.8 13.8H12C12 13.0044 11.6839 12.2413 11.1213 11.6787C10.5587 11.1161 9.79565 10.8 9 10.8V12ZM9 10.8C8.20435 10.8 7.44129 11.1161 6.87868 11.6787C6.31607 12.2413 6 13.0044 6 13.8H7.2C7.2 13.3226 7.38964 12.8648 7.72721 12.5272C8.06477 12.1897 8.52261 12 9 12V10.8ZM16.2 18C16.6774 18 17.1352 17.8104 17.4728 17.4728C17.8104 17.1353 18 16.6774 18 16.2H16.8C16.8 16.3592 16.7368 16.5118 16.6243 16.6243C16.5117 16.7368 16.3591 16.8 16.2 16.8V18ZM1.8 16.8C1.64087 16.8 1.48826 16.7368 1.37574 16.6243C1.26321 16.5118 1.2 16.3592 1.2 16.2H0C0 16.6774 0.189642 17.1353 0.527208 17.4728C0.864773 17.8104 1.32261 18 1.8 18V16.8Z" fill="#868686"/>
</g>
<defs>
<clipPath id="clip0_656_2">
<rect width="18" height="18" fill="white"/>
</clipPath>
</defs>
</svg>
