<?xml version="1.0" encoding="UTF-8" ?>
<!DOCTYPE svg PUBLIC "-//W3C//DTD SVG 1.1//EN"
  "http://www.w3.org/Graphics/SVG/1.1/DTD/svg11.dtd">
<!-- Creator: CorelDRAW -->
<svg
  xmlns="http://www.w3.org/2000/svg"
  xml:space="preserve"
  width="75px"
  height="75px"
  version="1.1"
  style="shape-rendering:geometricPrecision; text-rendering:geometricPrecision; image-rendering:optimizeQuality; fillRule:evenodd; clipRule:evenodd"
  viewBox="0 0 74.013 74.013"
  xmlns:xlink="http://www.w3.org/1999/xlink"
  xmlns:xodm="http://www.corel.com/coreldraw/odm/2003"
>
 <defs>
  <style type="text/css">
   <![CDATA[
    .fil0 {fill:none}
    .fil1 {fill:white;fillRule:nonzero}
   ]]>
  </style>
 </defs>
 <g id="Layer_x0020_1">
  <metadata id="CorelCorpID_0Corel-Layer" />
  <g id="_2755225786592">
   <rect className="fil0" width="74.013" height="74.013" />
   <path
        className="fil1"
        d="M51.771 18.65c0,4.077 -1.655,7.771 -4.329,10.445 -2.674,2.674 -6.368,4.329 -10.446,4.329 -4.066,0 -7.756,-1.657 -10.43,-4.335 -2.67,-2.674 -4.324,-6.366 -4.324,-10.439 0,-4.068 1.655,-7.757 4.326,-10.428 2.672,-2.672 6.361,-4.327 10.428,-4.327 4.074,0 7.766,1.655 10.439,4.325 2.678,2.673 4.336,6.363 4.336,10.43zm-6.04 8.734c2.236,-2.235 3.62,-5.324 3.62,-8.734 0,-3.404 -1.384,-6.489 -3.618,-8.72 -2.235,-2.232 -5.325,-3.614 -8.737,-3.614 -3.4,0 -6.484,1.383 -8.717,3.616 -2.233,2.234 -3.617,5.318 -3.617,8.718 0,3.412 1.383,6.501 3.615,8.737 2.231,2.234 5.315,3.617 8.719,3.617 3.411,0 6.5,-1.384 8.735,-3.62z"
      />
   <path
        className="fil1"
        d="M68.776 61.499c0,2.367 -0.968,4.521 -2.529,6.084l-0.005 0.004c-1.563,1.561 -3.717,2.53 -6.084,2.53l-46.304 0c-2.38,0 -4.533,-0.966 -6.09,-2.525 -1.562,-1.561 -2.527,-3.718 -2.527,-6.093 0,-6.692 2.724,-12.763 7.121,-17.16 4.397,-4.397 10.468,-7.121 17.16,-7.121l14.977 0c6.692,0 12.762,2.724 17.16,7.121 4.397,4.397 7.121,10.468 7.121,17.16zm-4.235 4.378c1.12,-1.12 1.815,-2.67 1.815,-4.378 0,-6.024 -2.453,-11.49 -6.412,-15.449 -3.959,-3.959 -9.425,-6.412 -15.449,-6.412l-14.977 0c-6.024,0 -11.49,2.453 -15.449,6.412 -3.959,3.959 -6.412,9.425 -6.412,15.449 0,1.708 0.694,3.259 1.817,4.383 1.12,1.12 2.668,1.815 4.38,1.815l46.304 0c1.708,0 3.258,-0.696 4.378,-1.816l0.005 -0.004z"
      />
  </g>
 </g>
</svg>
