<?xml version="1.0" encoding="UTF-8" ?>
<!DOCTYPE svg PUBLIC "-//W3C//DTD SVG 1.1//EN"
  "http://www.w3.org/Graphics/SVG/1.1/DTD/svg11.dtd">
<!-- Creator: CorelDRAW -->
<svg
  xmlns="http://www.w3.org/2000/svg"
  xml:space="preserve"
  width="75px"
  height="75px"
  version="1.1"
  style="shape-rendering:geometricPrecision; text-rendering:geometricPrecision; image-rendering:optimizeQuality; fillRule:evenodd; clipRule:evenodd"
  viewBox="0 0 74.013 74.013"
  xmlns:xlink="http://www.w3.org/1999/xlink"
  xmlns:xodm="http://www.corel.com/coreldraw/odm/2003"
>
 <defs>
  <style type="text/css">
   <![CDATA[
    .fil0 {fill:none}
    .fil1 {fill:white;fillRule:nonzero}
   ]]>
  </style>
 </defs>
 <g id="Layer_x0020_1">
  <metadata id="CorelCorpID_0Corel-Layer" />
  <g id="_2753130843072">
   <rect className="fil0" width="74.013" height="74.013" />
   <path
        className="fil1"
        d="M61.727 36.748c0,-0.973 -0.133,-1.927 -0.343,-2.862 -1.088,-4.579 -3.682,-7.975 -7.937,-10.074 -1.564,-0.763 -3.281,-1.202 -5.036,-1.373 -0.859,-0.057 -1.698,-0.057 -2.557,-0.057 -5.552,-0.02 -11.085,-0.02 -16.636,-0.02 -0.916,0 -1.851,0.02 -2.786,0.039 -1.03,0 -2.022,0.133 -2.995,0.4 -4.407,1.164 -7.689,3.682 -9.711,7.784 -0.82,1.698 -1.297,3.511 -1.412,5.38 -0.057,0.878 -0.057,1.755 -0.057,2.614 -0.019,1.069 -0.019,2.118 -0.019,3.186 0.019,3.358 0.019,6.754 0.038,10.112 0,0.973 0.076,1.946 0.286,2.9 0.687,3.453 2.366,6.353 5.132,8.585 2.633,2.137 5.685,3.167 9.044,3.224 2.137,0.057 4.311,0.019 6.467,0.019l2.48 0c0.058,0 0.153,0.019 0.21,0.038l0.706 0c0.058,-0.019 0.115,-0.038 0.191,-0.038l4.75 0c1.87,-0.019 3.721,-0.038 5.61,-0.038 1.354,0 2.689,-0.191 3.987,-0.572 4.197,-1.202 7.269,-3.777 9.157,-7.708 0.802,-1.641 1.241,-3.377 1.393,-5.17 0.058,-0.878 0.058,-1.793 0.058,-2.671 0.019,-4.274 0,-8.547 0,-12.859 0,-0.267 -0.02,-0.553 -0.02,-0.839zm-4.178 18.525l0 0c0,0.82 -0.191,1.583 -0.534,2.27 -0.63,1.259 -1.755,2.232 -3.148,2.633 -0.458,0.133 -0.954,0.21 -1.45,0.21l-30.926 0c-0.496,0 -0.992,-0.077 -1.45,-0.21 -1.374,-0.401 -2.499,-1.374 -3.129,-2.633 -0.343,-0.687 -0.534,-1.45 -0.534,-2.27l0 -22.15c0,-0.82 0.191,-1.584 0.534,-2.271 0.84,-1.678 2.576,-2.842 4.579,-2.842l30.926 0c2.023,0 3.759,1.164 4.598,2.842 0.343,0.687 0.534,1.451 0.534,2.271l0 22.15z"
      />
   <path
        className="fil1"
        d="M64.418 35.565c1.042,0.443 2.061,0.902 2.92,1.662 1.363,1.207 2.211,2.717 2.677,4.457 0.144,0.536 0.249,1.084 0.37,1.626 0.01,0.043 0.012,0.089 0.012,0.133 0.001,0.697 0.022,1.395 -0.009,2.091 -0.015,0.328 -0.133,0.652 -0.201,0.978 -0.264,1.275 -0.696,2.484 -1.405,3.585 -0.947,1.468 -2.239,2.507 -3.884,3.1 -0.146,0.052 -0.306,0.068 -0.48,0.106 0,-5.941 0,-11.835 0,-17.738z"
      />
   <path
        className="fil1"
        d="M9.562 53.255c-0.392,-0.036 -0.752,-0.146 -1.101,-0.292 -1.142,-0.478 -2.032,-1.273 -2.774,-2.243 -1.108,-1.445 -1.803,-3.076 -2.003,-4.883 -0.316,-2.853 0.345,-5.467 2.132,-7.746 0.831,-1.06 1.876,-1.849 3.185,-2.249 0.179,-0.054 0.362,-0.094 0.561,-0.145 0,5.864 0,11.697 0,17.558z"
      />
   <path
        className="fil1"
        d="M38.318 20.39c-0.891,0 -1.748,0 -2.618,0 -0.004,-0.051 -0.01,-0.1 -0.009,-0.148 0.002,-1.639 0.001,-3.279 0.012,-4.918 0.003,-0.473 -0.185,-0.799 -0.603,-1.028 -1.262,-0.69 -1.988,-2.11 -1.827,-3.527 0.198,-1.74 1.388,-3.043 3.106,-3.343 2.084,-0.364 3.932,1.071 4.289,2.953 0.315,1.661 -0.408,3.177 -1.891,3.999 -0.333,0.184 -0.489,0.446 -0.482,0.826 0.014,0.713 0.02,1.426 0.022,2.14 0.004,1.008 0.001,2.017 0.001,3.046z"
      />
   <path
        className="fil1"
        d="M38.337 41.631c-0.343,-0.667 -0.801,-1.22 -1.431,-1.659 -0.61,-0.439 -1.335,-0.763 -2.213,-0.973 -0.858,-0.229 -1.812,-0.324 -2.881,-0.324 -0.668,0 -1.392,0.038 -2.174,0.133 -0.763,0.096 -1.432,0.267 -1.985,0.477 -0.515,0.21 -0.896,0.477 -1.125,0.763 -0.248,0.305 -0.363,0.706 -0.363,1.221 0,0.382 0.077,0.763 0.248,1.126 0.191,0.362 0.401,0.63 0.649,0.801 0.572,-0.229 1.202,-0.439 1.908,-0.591 0.725,-0.153 1.43,-0.229 2.156,-0.229 0.934,0 1.64,0.114 2.136,0.362 0.496,0.248 0.745,0.649 0.745,1.221l0 0.191 -3.816 0.42c-1.679,0.171 -2.92,0.61 -3.721,1.335 -0.781,0.725 -1.182,1.755 -1.182,3.091 0,0.801 0.152,1.507 0.477,2.118 0.324,0.591 0.782,1.087 1.373,1.488 0.591,0.381 1.298,0.668 2.137,0.858 0.82,0.21 1.755,0.306 2.785,0.306 2.29,0 4.064,-0.382 5.342,-1.145 0.382,-0.229 0.725,-0.515 1.011,-0.84 0.268,-0.305 0.42,-0.725 0.42,-1.239l0 -6.525c0,-0.916 -0.172,-1.718 -0.496,-2.386zm-4.293 8.128l0 0c-0.19,0.115 -0.495,0.21 -0.896,0.287 -0.401,0.057 -0.763,0.095 -1.088,0.095 -0.725,0 -1.24,-0.115 -1.545,-0.363 -0.286,-0.248 -0.439,-0.553 -0.439,-0.954 0,-0.381 0.172,-0.686 0.515,-0.877 0.362,-0.191 0.801,-0.305 1.355,-0.344l2.098 -0.171 0 2.327z"
      />
   <path
        className="fil1"
        d="M46.293 39.533c-0.42,-0.324 -1.126,-0.477 -2.099,-0.477 -0.457,0 -0.896,0.019 -1.297,0.077 -0.401,0.057 -0.706,0.114 -0.916,0.171l0 11.886c0,0.916 0.21,1.526 0.649,1.851 0.42,0.324 1.125,0.496 2.099,0.496 0.457,0 0.896,-0.038 1.297,-0.096 0.4,-0.057 0.706,-0.114 0.916,-0.171l0 -11.887c0,-0.915 -0.21,-1.526 -0.649,-1.85zm0.133 -6.238l0 0c-0.496,-0.497 -1.144,-0.764 -1.965,-0.764 -0.82,0 -1.469,0.267 -1.965,0.764 -0.496,0.514 -0.744,1.125 -0.744,1.869 0,0.744 0.248,1.374 0.744,1.87 0.496,0.515 1.145,0.763 1.965,0.763 0.821,0 1.469,-0.248 1.965,-0.763 0.497,-0.496 0.745,-1.126 0.745,-1.87 0,-0.744 -0.248,-1.355 -0.745,-1.869z"
      />
  </g>
 </g>
</svg>
