<svg width="30" height="34" viewBox="0 0 30 34" fill="none" xmlns="http://www.w3.org/2000/svg">
<path d="M29.5098 26.8304C28.5455 25.9707 27.7013 24.9852 26.9998 23.9004C26.2333 22.4032 25.7743 20.7678 25.6498 19.0904V14.1504C25.6564 11.516 24.7008 8.96987 22.9625 6.99036C21.2243 5.01086 18.823 3.73425 16.2098 3.40039V2.11039C16.2098 1.75633 16.0692 1.41676 15.8188 1.1664C15.5684 0.916042 15.2289 0.775391 14.8748 0.775391C14.5207 0.775391 14.1812 0.916042 13.9308 1.1664C13.6805 1.41676 13.5398 1.75633 13.5398 2.11039V3.42039C10.9501 3.77832 8.57778 5.06265 6.86233 7.0355C5.14689 9.00835 4.20453 11.536 4.2098 14.1504V19.0904C4.08536 20.7678 3.62634 22.4032 2.8598 23.9004C2.17069 24.9827 1.34 25.9681 0.389805 26.8304C0.283136 26.9241 0.197646 27.0395 0.139022 27.1688C0.0803982 27.2981 0.0499845 27.4384 0.0498047 27.5804V28.9404C0.0498047 29.2056 0.155161 29.46 0.342698 29.6475C0.530234 29.835 0.784588 29.9404 1.0498 29.9404H28.8498C29.115 29.9404 29.3694 29.835 29.5569 29.6475C29.7444 29.46 29.8498 29.2056 29.8498 28.9404V27.5804C29.8496 27.4384 29.8192 27.2981 29.7606 27.1688C29.702 27.0395 29.6165 26.9241 29.5098 26.8304ZM2.1298 27.9404C3.06 27.0414 3.87917 26.0342 4.56981 24.9404C5.53559 23.1323 6.09849 21.1366 6.2198 19.0904V14.1504C6.18015 12.9784 6.37673 11.8105 6.79785 10.7161C7.21897 9.62165 7.85602 8.62317 8.67105 7.78009C9.48609 6.93701 10.4624 6.26656 11.542 5.80866C12.6215 5.35077 13.7822 5.1148 14.9548 5.1148C16.1274 5.1148 17.2881 5.35077 18.3676 5.80866C19.4472 6.26656 20.4235 6.93701 21.2386 7.78009C22.0536 8.62317 22.6906 9.62165 23.1118 10.7161C23.5329 11.8105 23.7295 12.9784 23.6898 14.1504V19.0904C23.8111 21.1366 24.374 23.1323 25.3398 24.9404C26.0304 26.0342 26.8496 27.0414 27.7798 27.9404H2.1298Z" fill="#868686"/>
<path d="M15.0003 33.28C15.6302 33.2655 16.2348 33.0287 16.7069 32.6114C17.1791 32.1942 17.4884 31.6234 17.5803 31H12.3203C12.4148 31.6403 12.7386 32.2245 13.2316 32.6439C13.7246 33.0633 14.3531 33.2894 15.0003 33.28Z" fill="#868686"/>
</svg>
