<svg width="36" height="36" viewBox="0 0 36 36" fill="none" xmlns="http://www.w3.org/2000/svg">
<path d="M32.8498 28.1304L32.5098 27.8304C31.5455 26.9707 30.7013 25.9852 29.9998 24.9004C29.2333 23.4032 28.7743 21.7678 28.6498 20.0904V15.1504C28.6564 12.516 27.7008 9.96987 25.9625 7.99036C24.2243 6.01086 21.823 4.73425 19.2098 4.40039V3.11039C19.2098 2.75633 19.0692 2.41676 18.8188 2.1664C18.5684 1.91604 18.2289 1.77539 17.8748 1.77539C17.5207 1.77539 17.1812 1.91604 16.9308 2.1664C16.6805 2.41676 16.5398 2.75633 16.5398 3.11039V4.42039C13.9501 4.77832 11.5778 6.06265 9.86233 8.0355C8.14689 10.0083 7.20453 12.536 7.2098 15.1504V20.0904C7.08536 21.7678 6.62634 23.4032 5.8598 24.9004C5.17069 25.9827 4.34 26.9681 3.3898 27.8304L3.0498 28.1304V30.9504H32.8498V28.1304Z" fill="white"/>
<path d="M15.3203 32C15.408 32.6339 15.7221 33.2146 16.2046 33.635C16.6871 34.0553 17.3054 34.2869 17.9453 34.2869C18.5852 34.2869 19.2035 34.0553 19.686 33.635C20.1685 33.2146 20.4826 32.6339 20.5703 32H15.3203Z" fill="white"/>
</svg>
