<svg width="16" height="17" viewBox="0 0 16 17" fill="none" xmlns="http://www.w3.org/2000/svg">
<path d="M10.999 7.00044C11.137 7.00044 11.2737 7.00544 11.409 7.01544C11.4677 6.8541 11.4977 6.68244 11.499 6.50044V2.50044C11.499 2.10261 11.341 1.72108 11.0597 1.43978C10.7784 1.15847 10.3968 1.00044 9.999 1.00044H6.999V0.500435C7.00183 0.434019 6.99083 0.367739 6.96671 0.305796C6.94258 0.243852 6.90585 0.187595 6.85885 0.140589C6.81184 0.093583 6.75558 0.0568533 6.69364 0.0327273C6.6317 0.00860139 6.56542 -0.0023949 6.499 0.000435221C6.223 0.000435221 5.999 0.230435 5.999 0.500435V1.00044H2.999C2.60118 1.00044 2.21964 1.15847 1.93834 1.43978C1.65704 1.72108 1.499 2.10261 1.499 2.50044V6.50044C1.499 6.89826 1.65704 7.27979 1.93834 7.5611C2.21964 7.8424 2.60118 8.00043 2.999 8.00043H7.836C8.731 7.37043 9.822 7.00044 10.999 7.00044ZM3.499 4.50044C3.499 4.23522 3.60436 3.98086 3.79189 3.79333C3.97943 3.60579 4.23378 3.50044 4.499 3.50044C4.76422 3.50044 5.01857 3.60579 5.20611 3.79333C5.39364 3.98086 5.499 4.23522 5.499 4.50044C5.499 4.76565 5.39364 5.02001 5.20611 5.20754C5.01857 5.39508 4.76422 5.50044 4.499 5.50044C4.23378 5.50044 3.97943 5.39508 3.79189 5.20754C3.60436 5.02001 3.499 4.76565 3.499 4.50044ZM7.499 4.50044C7.499 4.23522 7.60436 3.98086 7.79189 3.79333C7.97943 3.60579 8.23378 3.50044 8.499 3.50044C8.76422 3.50044 9.01857 3.60579 9.20611 3.79333C9.39364 3.98086 9.499 4.23522 9.499 4.50044C9.499 4.76565 9.39364 5.02001 9.20611 5.20754C9.01857 5.39508 8.76422 5.50044 8.499 5.50044C8.23378 5.50044 7.97943 5.39508 7.79189 5.20754C7.60436 5.02001 7.499 4.76565 7.499 4.50044ZM5.499 12.5004C5.499 11.3954 5.825 10.3654 6.386 9.50344H1.809C1.32913 9.5037 0.869008 9.69451 0.529783 10.0339C0.190559 10.3733 -7.32378e-08 10.8336 0 11.3134V12.0024H0.00500011C0.0390001 12.7824 0.253 13.7594 1.128 14.5574C2.083 15.4304 3.733 16.0004 6.499 16.0004C6.58567 16.0004 6.671 15.9998 6.755 15.9984C5.94164 15.0143 5.49741 13.7771 5.499 12.5004ZM15.499 12.5004C15.499 13.6939 15.0249 14.8385 14.181 15.6824C13.3371 16.5263 12.1925 17.0004 10.999 17.0004C9.80553 17.0004 8.66093 16.5263 7.81702 15.6824C6.97311 14.8385 6.499 13.6939 6.499 12.5004C6.499 11.307 6.97311 10.1624 7.81702 9.31845C8.66093 8.47454 9.80553 8.00043 10.999 8.00043C12.1925 8.00043 13.3371 8.47454 14.181 9.31845C15.0249 10.1624 15.499 11.307 15.499 12.5004ZM11.499 10.5004C11.499 10.3678 11.4463 10.2406 11.3526 10.1469C11.2588 10.0531 11.1316 10.0004 10.999 10.0004C10.8664 10.0004 10.7392 10.0531 10.6454 10.1469C10.5517 10.2406 10.499 10.3678 10.499 10.5004V12.0004H8.999C8.86639 12.0004 8.73921 12.0531 8.64545 12.1469C8.55168 12.2406 8.499 12.3678 8.499 12.5004C8.499 12.633 8.55168 12.7602 8.64545 12.854C8.73921 12.9478 8.86639 13.0004 8.999 13.0004H10.499V14.5004C10.499 14.633 10.5517 14.7602 10.6454 14.854C10.7392 14.9478 10.8664 15.0004 10.999 15.0004C11.1316 15.0004 11.2588 14.9478 11.3526 14.854C11.4463 14.7602 11.499 14.633 11.499 14.5004V13.0004H12.999C13.1316 13.0004 13.2588 12.9478 13.3526 12.854C13.4463 12.7602 13.499 12.633 13.499 12.5004C13.499 12.3678 13.4463 12.2406 13.3526 12.1469C13.2588 12.0531 13.1316 12.0004 12.999 12.0004H11.499V10.5004Z" fill="white"/>
</svg>
