<svg width="16" height="17" viewBox="0 0 16 17" fill="none" xmlns="http://www.w3.org/2000/svg">
<path d="M8.5 3.5C8.23478 3.5 7.98043 3.60536 7.79289 3.79289C7.60536 3.98043 7.5 4.23478 7.5 4.5C7.5 4.76522 7.60536 5.01957 7.79289 5.20711C7.98043 5.39464 8.23478 5.5 8.5 5.5C8.76522 5.5 9.01957 5.39464 9.20711 5.20711C9.39464 5.01957 9.5 4.76522 9.5 4.5C9.5 4.23478 9.39464 3.98043 9.20711 3.79289C9.01957 3.60536 8.76522 3.5 8.5 3.5ZM3.5 4.5C3.5 4.23478 3.60536 3.98043 3.79289 3.79289C3.98043 3.60536 4.23478 3.5 4.5 3.5C4.76522 3.5 5.01957 3.60536 5.20711 3.79289C5.39464 3.98043 5.5 4.23478 5.5 4.5C5.5 4.76522 5.39464 5.01957 5.20711 5.20711C5.01957 5.39464 4.76522 5.5 4.5 5.5C4.23478 5.5 3.98043 5.39464 3.79289 5.20711C3.60536 5.01957 3.5 4.76522 3.5 4.5ZM7 0.5C7 0.367392 6.94732 0.240215 6.85355 0.146447C6.75979 0.0526785 6.63261 0 6.5 0C6.36739 0 6.24021 0.0526785 6.14645 0.146447C6.05268 0.240215 6 0.367392 6 0.5V1H3C2.60218 1 2.22064 1.15804 1.93934 1.43934C1.65804 1.72064 1.5 2.10218 1.5 2.5V6.5C1.5 6.89782 1.65804 7.27936 1.93934 7.56066C2.22064 7.84196 2.60218 8 3 8H7.837C8.87718 7.26688 10.1401 6.91863 11.409 7.015C11.4697 6.85367 11.5 6.682 11.5 6.5V2.5C11.5 2.10218 11.342 1.72064 11.0607 1.43934C10.7794 1.15804 10.3978 1 10 1H7V0.5ZM3 2H10C10.1326 2 10.2598 2.05268 10.3536 2.14645C10.4473 2.24021 10.5 2.36739 10.5 2.5V6.5C10.5 6.63261 10.4473 6.75979 10.3536 6.85355C10.2598 6.94732 10.1326 7 10 7H3C2.86739 7 2.74021 6.94732 2.64645 6.85355C2.55268 6.75979 2.5 6.63261 2.5 6.5V2.5C2.5 2.36739 2.55268 2.24021 2.64645 2.14645C2.74021 2.05268 2.86739 2 3 2ZM5 9.5H6.39C6.18467 9.81467 6.01267 10.149 5.874 10.503H1.809C1.59435 10.5033 1.38858 10.5887 1.23689 10.7406C1.0852 10.8925 1 11.0983 1 11.313V11.75C1 12.44 1.131 13.206 1.802 13.819C2.454 14.413 3.702 14.942 6.097 14.996C6.281 15.3553 6.50067 15.6893 6.756 15.998H6.75V16H6.25V15.998C3.634 15.965 2.055 15.403 1.128 14.558C0.253 13.758 0.0390001 12.781 0.00500011 12.002H0V11.312C0 10.313 0.81 9.503 1.81 9.503H5V9.5ZM15.5 12.5C15.5 13.6935 15.0259 14.8381 14.182 15.682C13.3381 16.5259 12.1935 17 11 17C9.80653 17 8.66193 16.5259 7.81802 15.682C6.97411 14.8381 6.5 13.6935 6.5 12.5C6.5 11.3065 6.97411 10.1619 7.81802 9.31802C8.66193 8.47411 9.80653 8 11 8C12.1935 8 13.3381 8.47411 14.182 9.31802C15.0259 10.1619 15.5 11.3065 15.5 12.5ZM11.5 10.5C11.5 10.3674 11.4473 10.2402 11.3536 10.1464C11.2598 10.0527 11.1326 10 11 10C10.8674 10 10.7402 10.0527 10.6464 10.1464C10.5527 10.2402 10.5 10.3674 10.5 10.5V12H9C8.86739 12 8.74021 12.0527 8.64645 12.1464C8.55268 12.2402 8.5 12.3674 8.5 12.5C8.5 12.6326 8.55268 12.7598 8.64645 12.8536C8.74021 12.9473 8.86739 13 9 13H10.5V14.5C10.5 14.6326 10.5527 14.7598 10.6464 14.8536C10.7402 14.9473 10.8674 15 11 15C11.1326 15 11.2598 14.9473 11.3536 14.8536C11.4473 14.7598 11.5 14.6326 11.5 14.5V13H13C13.1326 13 13.2598 12.9473 13.3536 12.8536C13.4473 12.7598 13.5 12.6326 13.5 12.5C13.5 12.3674 13.4473 12.2402 13.3536 12.1464C13.2598 12.0527 13.1326 12 13 12H11.5V10.5Z" fill="#868686"/>
</svg>
